<?plantuml 1.2026.2?><svg xmlns="http://www.w3.org/2000/svg" xmlns:xlink="http://www.w3.org/1999/xlink" contentStyleType="text/css" data-diagram-type="ACTIVITY" height="1428px" preserveAspectRatio="none" style="width:510px;height:1428px;background:#FFFFFF;" version="1.1" viewBox="0 0 510 1428" width="510px" zoomAndPan="magnify"><title>&lt;b&gt;Zero-Prerequisite Onboarding&lt;/b&gt;
bin/setup bootstrap flow</title><defs/><g><g class="title" data-source-line="31"><text fill="#000000" font-family="'Segoe UI'" font-size="14" font-weight="bold" lengthAdjust="spacing" textLength="218.9688" x="144.3645" y="33.5352">Zero-Prerequisite Onboarding</text><text fill="#000000" font-family="'Segoe UI'" font-size="14" font-weight="bold" lengthAdjust="spacing" textLength="182.1025" x="162.7976" y="50.0234">bin/setup bootstrap flow</text></g><ellipse cx="160.8633" cy="73.9766" fill="#222222" rx="10" ry="10" style="stroke:#222222;stroke-width:1;"/><rect fill="#EDE9FE" height="34.1328" rx="12.5" ry="12.5" style="stroke:#94A3B8;stroke-width:1;" width="100.6719" x="110.5273" y="103.9766"/><text fill="#1E293B" font-family="'Segoe UI'" font-size="12" lengthAdjust="spacing" textLength="80.6719" x="120.5273" y="125.5781">git clone repo</text><rect fill="#EDE9FE" height="34.1328" rx="12.5" ry="12.5" style="stroke:#94A3B8;stroke-width:1;" width="155.457" x="83.1348" y="158.1094"/><text fill="#1E293B" font-family="'Segoe UI'" font-size="12" lengthAdjust="spacing" textLength="135.457" x="93.1348" y="179.7109">cd la-brigade-du-code</text><rect fill="#EDE9FE" height="34.1328" rx="12.5" ry="12.5" style="stroke:#94A3B8;stroke-width:1;" width="110.7441" x="105.4912" y="212.2422"/><text fill="#1E293B" font-family="'Segoe UI'" font-size="12" lengthAdjust="spacing" textLength="90.7441" x="115.4912" y="233.8438">run ./bin/setup</text><rect fill="#F8FAFC" height="580.1074" style="stroke:#94A3B8;stroke-width:1.5;" width="284.7617" x="23" y="256.375"/><path d="M143.8745,256.375 L143.8745,264.6855 L133.8745,274.6855 L23,274.6855" fill="none" style="stroke:#94A3B8;stroke-width:1.5;"/><text fill="#1E293B" font-family="'Segoe UI'" font-size="13" font-weight="bold" lengthAdjust="spacing" textLength="110.8745" x="26" y="269.9434">Pre-flight Check</text><rect fill="#EDE9FE" height="34.1328" rx="12.5" ry="12.5" style="stroke:#94A3B8;stroke-width:1;" width="120.8398" x="100.4434" y="291.6855"/><text fill="#1E293B" font-family="'Segoe UI'" font-size="12" lengthAdjust="spacing" textLength="100.8398" x="110.4434" y="313.2871">Check git version</text><polygon fill="#FEF3C7" points="131.5986,345.8184,190.1279,345.8184,202.1279,357.8184,190.1279,369.8184,131.5986,369.8184,119.5986,357.8184,131.5986,345.8184" style="stroke:#94A3B8;stroke-width:1;"/><text fill="#1E293B" font-family="'Segoe UI'" font-size="12" lengthAdjust="spacing" textLength="58.5293" x="131.5986" y="362.3535">git found?</text><text fill="#475569" font-family="'Segoe UI'" font-size="11" lengthAdjust="spacing" textLength="17.4829" x="102.1157" y="355.498">yes</text><text fill="#475569" font-family="'Segoe UI'" font-size="11" lengthAdjust="spacing" textLength="13.5835" x="202.1279" y="355.498">no</text><rect fill="#EDE9FE" height="34.1328" rx="12.5" ry="12.5" style="stroke:#94A3B8;stroke-width:1;" width="96.1895" x="50.1563" y="379.8184"/><text fill="#1E293B" font-family="'Segoe UI'" font-size="12" lengthAdjust="spacing" textLength="76.1895" x="60.1563" y="401.4199">show version</text><rect fill="#EDE9FE" height="34.1328" rx="12.5" ry="12.5" style="stroke:#94A3B8;stroke-width:1;" width="114.2598" x="166.3457" y="379.8184"/><text fill="#1E293B" font-family="'Segoe UI'" font-size="12" lengthAdjust="spacing" textLength="94.2598" x="176.3457" y="401.4199">show install link</text><ellipse cx="223.4756" cy="444.9512" fill="none" rx="11" ry="11" style="stroke:#222222;stroke-width:1;"/><ellipse cx="223.4756" cy="444.9512" fill="#222222" rx="6" ry="6" style="stroke:#222222;stroke-width:1;"/><rect fill="#EDE9FE" height="34.1328" rx="12.5" ry="12.5" style="stroke:#94A3B8;stroke-width:1;" width="145.0801" x="88.3232" y="475.9512"/><text fill="#1E293B" font-family="'Segoe UI'" font-size="12" lengthAdjust="spacing" textLength="125.0801" x="98.3232" y="497.5527">Check docker version</text><polygon fill="#FEF3C7" points="119.4785,530.084,202.248,530.084,214.248,542.084,202.248,554.084,119.4785,554.084,107.4785,542.084,119.4785,530.084" style="stroke:#94A3B8;stroke-width:1;"/><text fill="#1E293B" font-family="'Segoe UI'" font-size="12" lengthAdjust="spacing" textLength="82.7695" x="119.4785" y="546.6191">docker found?</text><text fill="#475569" font-family="'Segoe UI'" font-size="11" lengthAdjust="spacing" textLength="17.4829" x="89.9956" y="539.7637">yes</text><text fill="#475569" font-family="'Segoe UI'" font-size="11" lengthAdjust="spacing" textLength="13.5835" x="214.248" y="539.7637">no</text><rect fill="#EDE9FE" height="34.1328" rx="12.5" ry="12.5" style="stroke:#94A3B8;stroke-width:1;" width="96.1895" x="49.3838" y="564.084"/><text fill="#1E293B" font-family="'Segoe UI'" font-size="12" lengthAdjust="spacing" textLength="76.1895" x="59.3838" y="585.6855">show version</text><rect fill="#EDE9FE" height="34.1328" rx="12.5" ry="12.5" style="stroke:#94A3B8;stroke-width:1;" width="114.2598" x="167.1182" y="564.084"/><text fill="#1E293B" font-family="'Segoe UI'" font-size="12" lengthAdjust="spacing" textLength="94.2598" x="177.1182" y="585.6855">show install link</text><ellipse cx="224.248" cy="629.2168" fill="none" rx="11" ry="11" style="stroke:#222222;stroke-width:1;"/><ellipse cx="224.248" cy="629.2168" fill="#222222" rx="6" ry="6" style="stroke:#222222;stroke-width:1;"/><rect fill="#EDE9FE" height="34.1328" rx="12.5" ry="12.5" style="stroke:#94A3B8;stroke-width:1;" width="155.3164" x="83.2051" y="660.2168"/><text fill="#1E293B" font-family="'Segoe UI'" font-size="12" lengthAdjust="spacing" textLength="135.3164" x="93.2051" y="681.8184">Check docker compose</text><polygon fill="#FEF3C7" points="113.0947,714.3496,208.6318,714.3496,220.6318,726.3496,208.6318,738.3496,113.0947,738.3496,101.0947,726.3496,113.0947,714.3496" style="stroke:#94A3B8;stroke-width:1;"/><text fill="#1E293B" font-family="'Segoe UI'" font-size="12" lengthAdjust="spacing" textLength="95.5371" x="113.0947" y="730.8848">compose found?</text><text fill="#475569" font-family="'Segoe UI'" font-size="11" lengthAdjust="spacing" textLength="17.4829" x="83.6118" y="724.0293">yes</text><text fill="#475569" font-family="'Segoe UI'" font-size="11" lengthAdjust="spacing" textLength="13.5835" x="220.6318" y="724.0293">no</text><rect fill="#EDE9FE" height="34.1328" rx="12.5" ry="12.5" style="stroke:#94A3B8;stroke-width:1;" width="96.1895" x="43" y="748.3496"/><text fill="#1E293B" font-family="'Segoe UI'" font-size="12" lengthAdjust="spacing" textLength="76.1895" x="53" y="769.9512">show version</text><rect fill="#EDE9FE" height="34.1328" rx="12.5" ry="12.5" style="stroke:#94A3B8;stroke-width:1;" width="114.2598" x="173.502" y="748.3496"/><text fill="#1E293B" font-family="'Segoe UI'" font-size="12" lengthAdjust="spacing" textLength="94.2598" x="183.502" y="769.9512">show install link</text><ellipse cx="230.6318" cy="813.4824" fill="none" rx="11" ry="11" style="stroke:#222222;stroke-width:1;"/><ellipse cx="230.6318" cy="813.4824" fill="#222222" rx="6" ry="6" style="stroke:#222222;stroke-width:1;"/><rect fill="#F8FAFC" height="186.0859" style="stroke:#94A3B8;stroke-width:1.5;" width="488.6978" x="11" y="846.4824"/><path d="M121.9341,846.4824 L121.9341,854.793 L111.9341,864.793 L11,864.793" fill="none" style="stroke:#94A3B8;stroke-width:1.5;"/><text fill="#1E293B" font-family="'Segoe UI'" font-size="13" font-weight="bold" lengthAdjust="spacing" textLength="100.9341" x="14" y="860.0508">mise Bootstrap</text><polygon fill="#FEF3C7" points="119.6807,881.793,202.0459,881.793,214.0459,893.793,202.0459,905.793,119.6807,905.793,107.6807,893.793,119.6807,881.793" style="stroke:#94A3B8;stroke-width:1;"/><text fill="#1E293B" font-family="'Segoe UI'" font-size="12" lengthAdjust="spacing" textLength="82.3652" x="119.6807" y="898.3281">mise in PATH?</text><text fill="#475569" font-family="'Segoe UI'" font-size="11" lengthAdjust="spacing" textLength="17.4829" x="90.1978" y="891.4727">yes</text><text fill="#475569" font-family="'Segoe UI'" font-size="11" lengthAdjust="spacing" textLength="13.5835" x="214.0459" y="891.4727">no</text><rect fill="#EDE9FE" height="34.1328" rx="12.5" ry="12.5" style="stroke:#94A3B8;stroke-width:1;" width="111.2891" x="24.8818" y="915.793"/><text fill="#1E293B" font-family="'Segoe UI'" font-size="12" lengthAdjust="spacing" textLength="91.2891" x="34.8818" y="937.3945">use global mise</text><path d="M346.2295,915.793 L346.2295,949.1807 L326.2295,953.1807 L346.2295,957.1807 L346.2295,990.5684 A0,0 0 0 0 346.2295,990.5684 L487.6978,990.5684 A0,0 0 0 0 487.6978,990.5684 L487.6978,925.793 L477.6978,915.793 L346.2295,915.793 A0,0 0 0 0 346.2295,915.793" fill="#FFFBEB" style="stroke:#94A3B8;stroke-width:0.5;"/><path d="M477.6978,915.793 L477.6978,925.793 L487.6978,925.793 L477.6978,915.793" fill="#FFFBEB" style="stroke:#94A3B8;stroke-width:0.5;"/><text fill="#78350F" font-family="'Segoe UI'" font-size="11" lengthAdjust="spacing" textLength="90.9595" x="352.2295" y="931.4277">Does NOT touch:</text><text fill="#78350F" font-family="'Segoe UI'" font-size="11" lengthAdjust="spacing" textLength="54.6616" x="352.2295" y="944.3828">- /.bashrc</text><text fill="#78350F" font-family="'Segoe UI'" font-size="11" lengthAdjust="spacing" textLength="47.9692" x="352.2295" y="957.3379">- /.zshrc</text><text fill="#78350F" font-family="'Segoe UI'" font-size="11" lengthAdjust="spacing" textLength="75.0073" x="352.2295" y="970.293">- global PATH</text><text fill="#78350F" font-family="'Segoe UI'" font-size="11" lengthAdjust="spacing" textLength="120.4683" x="352.2295" y="983.248">Same pattern as mvnw</text><rect fill="#EDE9FE" height="48.2656" rx="12.5" ry="12.5" style="stroke:#94A3B8;stroke-width:1;" width="170.0586" x="156.1709" y="929.0479"/><text fill="#1E293B" font-family="'Segoe UI'" font-size="12" lengthAdjust="spacing" textLength="150.0586" x="166.1709" y="950.6494">bin/mise downloads mise</text><text fill="#1E293B" font-family="'Segoe UI'" font-size="12" lengthAdjust="spacing" textLength="104.7539" x="166.1709" y="964.7822">into .mise/ locally</text><polygon fill="#FEF3C7" points="160.8633,996.5684,172.8633,1008.5684,160.8633,1020.5684,148.8633,1008.5684,160.8633,996.5684" style="stroke:#94A3B8;stroke-width:1;"/><rect fill="#F8FAFC" height="210.3965" style="stroke:#94A3B8;stroke-width:1.5;" width="288.708" x="93.0918" y="1042.5684"/><path d="M212.7222,1042.5684 L212.7222,1050.8789 L202.7222,1060.8789 L93.0918,1060.8789" fill="none" style="stroke:#94A3B8;stroke-width:1.5;"/><text fill="#1E293B" font-family="'Segoe UI'" font-size="13" font-weight="bold" lengthAdjust="spacing" textLength="109.6304" x="96.0918" y="1056.1367">Tool Installation</text><path d="M224.042,1070.8789 L224.042,1097.7891 L204.042,1101.7891 L224.042,1105.7891 L224.042,1132.6992 A0,0 0 0 0 224.042,1132.6992 L371.7998,1132.6992 A0,0 0 0 0 371.7998,1132.6992 L371.7998,1080.8789 L361.7998,1070.8789 L224.042,1070.8789 A0,0 0 0 0 224.042,1070.8789" fill="#FFFBEB" style="stroke:#94A3B8;stroke-width:0.5;"/><path d="M361.7998,1070.8789 L361.7998,1080.8789 L371.7998,1080.8789 L361.7998,1070.8789" fill="#FFFBEB" style="stroke:#94A3B8;stroke-width:0.5;"/><text fill="#78350F" font-family="'Segoe UI'" font-size="11" lengthAdjust="spacing" textLength="126.7578" x="230.042" y="1086.5137">Installs from mise.toml:</text><text fill="#78350F" font-family="'Segoe UI'" font-size="11" lengthAdjust="spacing" textLength="48.501" x="230.042" y="1099.4688">- Java 25</text><text fill="#78350F" font-family="'Segoe UI'" font-size="11" lengthAdjust="spacing" textLength="55.1719" x="230.042" y="1112.4238">- Node 24</text><text fill="#78350F" font-family="'Segoe UI'" font-size="11" lengthAdjust="spacing" textLength="82.3066" x="230.042" y="1125.3789">- Maven 3.9.14</text><rect fill="#EDE9FE" height="34.1328" rx="12.5" ry="12.5" style="stroke:#94A3B8;stroke-width:1;" width="86.3574" x="117.6846" y="1084.7227"/><text fill="#1E293B" font-family="'Segoe UI'" font-size="12" lengthAdjust="spacing" textLength="66.3574" x="127.6846" y="1106.3242">mise install</text><rect fill="#EDE9FE" height="34.1328" rx="12.5" ry="12.5" style="stroke:#94A3B8;stroke-width:1;" width="78.7227" x="121.502" y="1152.6992"/><text fill="#1E293B" font-family="'Segoe UI'" font-size="12" lengthAdjust="spacing" textLength="58.7227" x="131.502" y="1174.3008">mise trust</text><rect fill="#EDE9FE" height="34.1328" rx="12.5" ry="12.5" style="stroke:#94A3B8;stroke-width:1;" width="115.543" x="103.0918" y="1206.832"/><text fill="#1E293B" font-family="'Segoe UI'" font-size="12" lengthAdjust="spacing" textLength="95.543" x="113.0918" y="1228.4336">mise run banner</text><rect fill="#EDE9FE" height="48.2656" rx="12.5" ry="12.5" style="stroke:#94A3B8;stroke-width:1;" width="158.6035" x="81.5615" y="1272.9648"/><text fill="#1E293B" font-family="'Segoe UI'" font-size="12" lengthAdjust="spacing" textLength="116.1035" x="91.5615" y="1294.5664">Show kitchen status</text><text fill="#1E293B" font-family="'Segoe UI'" font-size="12" lengthAdjust="spacing" textLength="138.6035" x="91.5615" y="1308.6992">banner with all versions</text><rect fill="#EDE9FE" height="34.1328" rx="12.5" ry="12.5" style="stroke:#94A3B8;stroke-width:1;" width="105.875" x="107.9258" y="1341.2305"/><text fill="#1E293B" font-family="'Segoe UI'" font-size="12" lengthAdjust="spacing" textLength="85.875" x="117.9258" y="1362.832">Ready to cook!</text><ellipse cx="160.8633" cy="1406.3633" fill="none" rx="11" ry="11" style="stroke:#222222;stroke-width:1;"/><ellipse cx="160.8633" cy="1406.3633" fill="#222222" rx="6" ry="6" style="stroke:#222222;stroke-width:1;"/><line style="stroke:#475569;stroke-width:1;" x1="160.8633" x2="160.8633" y1="83.9766" y2="103.9766"/><polygon fill="#475569" points="156.8633,93.9766,160.8633,103.9766,164.8633,93.9766,160.8633,97.9766" style="stroke:#475569;stroke-width:1;"/><line style="stroke:#475569;stroke-width:1;" x1="160.8633" x2="160.8633" y1="138.1094" y2="158.1094"/><polygon fill="#475569" points="156.8633,148.1094,160.8633,158.1094,164.8633,148.1094,160.8633,152.1094" style="stroke:#475569;stroke-width:1;"/><line style="stroke:#475569;stroke-width:1;" x1="160.8633" x2="160.8633" y1="192.2422" y2="212.2422"/><polygon fill="#475569" points="156.8633,202.2422,160.8633,212.2422,164.8633,202.2422,160.8633,206.2422" style="stroke:#475569;stroke-width:1;"/><line style="stroke:#475569;stroke-width:1;" x1="223.4756" x2="223.4756" y1="413.9512" y2="433.9512"/><polygon fill="#475569" points="219.4756,423.9512,223.4756,433.9512,227.4756,423.9512,223.4756,427.9512" style="stroke:#475569;stroke-width:1;"/><line style="stroke:#475569;stroke-width:1;" x1="119.5986" x2="98.251" y1="357.8184" y2="357.8184"/><line style="stroke:#475569;stroke-width:1;" x1="98.251" x2="98.251" y1="357.8184" y2="379.8184"/><polygon fill="#475569" points="94.251,369.8184,98.251,379.8184,102.251,369.8184,98.251,373.8184" style="stroke:#475569;stroke-width:1;"/><line style="stroke:#475569;stroke-width:1;" x1="202.1279" x2="223.4756" y1="357.8184" y2="357.8184"/><line style="stroke:#475569;stroke-width:1;" x1="223.4756" x2="223.4756" y1="357.8184" y2="379.8184"/><polygon fill="#475569" points="219.4756,369.8184,223.4756,379.8184,227.4756,369.8184,223.4756,373.8184" style="stroke:#475569;stroke-width:1;"/><line style="stroke:#475569;stroke-width:1;" x1="98.251" x2="98.251" y1="413.9512" y2="460.9512"/><line style="stroke:#475569;stroke-width:1;" x1="98.251" x2="160.8633" y1="460.9512" y2="460.9512"/><line style="stroke:#475569;stroke-width:1;" x1="160.8633" x2="160.8633" y1="460.9512" y2="475.9512"/><polygon fill="#475569" points="156.8633,465.9512,160.8633,475.9512,164.8633,465.9512,160.8633,469.9512" style="stroke:#475569;stroke-width:1;"/><line style="stroke:#475569;stroke-width:1;" x1="160.8633" x2="160.8633" y1="325.8184" y2="345.8184"/><polygon fill="#475569" points="156.8633,335.8184,160.8633,345.8184,164.8633,335.8184,160.8633,339.8184" style="stroke:#475569;stroke-width:1;"/><line style="stroke:#475569;stroke-width:1;" x1="224.248" x2="224.248" y1="598.2168" y2="618.2168"/><polygon fill="#475569" points="220.248,608.2168,224.248,618.2168,228.248,608.2168,224.248,612.2168" style="stroke:#475569;stroke-width:1;"/><line style="stroke:#475569;stroke-width:1;" x1="107.4785" x2="97.4785" y1="542.084" y2="542.084"/><line style="stroke:#475569;stroke-width:1;" x1="97.4785" x2="97.4785" y1="542.084" y2="564.084"/><polygon fill="#475569" points="93.4785,554.084,97.4785,564.084,101.4785,554.084,97.4785,558.084" style="stroke:#475569;stroke-width:1;"/><line style="stroke:#475569;stroke-width:1;" x1="214.248" x2="224.248" y1="542.084" y2="542.084"/><line style="stroke:#475569;stroke-width:1;" x1="224.248" x2="224.248" y1="542.084" y2="564.084"/><polygon fill="#475569" points="220.248,554.084,224.248,564.084,228.248,554.084,224.248,558.084" style="stroke:#475569;stroke-width:1;"/><line style="stroke:#475569;stroke-width:1;" x1="97.4785" x2="97.4785" y1="598.2168" y2="645.2168"/><line style="stroke:#475569;stroke-width:1;" x1="97.4785" x2="160.8633" y1="645.2168" y2="645.2168"/><line style="stroke:#475569;stroke-width:1;" x1="160.8633" x2="160.8633" y1="645.2168" y2="660.2168"/><polygon fill="#475569" points="156.8633,650.2168,160.8633,660.2168,164.8633,650.2168,160.8633,654.2168" style="stroke:#475569;stroke-width:1;"/><line style="stroke:#475569;stroke-width:1;" x1="160.8633" x2="160.8633" y1="510.084" y2="530.084"/><polygon fill="#475569" points="156.8633,520.084,160.8633,530.084,164.8633,520.084,160.8633,524.084" style="stroke:#475569;stroke-width:1;"/><line style="stroke:#475569;stroke-width:1;" x1="230.6318" x2="230.6318" y1="782.4824" y2="802.4824"/><polygon fill="#475569" points="226.6318,792.4824,230.6318,802.4824,234.6318,792.4824,230.6318,796.4824" style="stroke:#475569;stroke-width:1;"/><line style="stroke:#475569;stroke-width:1;" x1="101.0947" x2="91.0947" y1="726.3496" y2="726.3496"/><line style="stroke:#475569;stroke-width:1;" x1="91.0947" x2="91.0947" y1="726.3496" y2="748.3496"/><polygon fill="#475569" points="87.0947,738.3496,91.0947,748.3496,95.0947,738.3496,91.0947,742.3496" style="stroke:#475569;stroke-width:1;"/><line style="stroke:#475569;stroke-width:1;" x1="220.6318" x2="230.6318" y1="726.3496" y2="726.3496"/><line style="stroke:#475569;stroke-width:1;" x1="230.6318" x2="230.6318" y1="726.3496" y2="748.3496"/><polygon fill="#475569" points="226.6318,738.3496,230.6318,748.3496,234.6318,738.3496,230.6318,742.3496" style="stroke:#475569;stroke-width:1;"/><line style="stroke:#475569;stroke-width:1;" x1="91.0947" x2="91.0947" y1="782.4824" y2="829.4824"/><line style="stroke:#475569;stroke-width:1;" x1="91.0947" x2="160.8633" y1="829.4824" y2="829.4824"/><line style="stroke:#475569;stroke-width:1;" x1="160.8633" x2="160.8633" y1="829.4824" y2="881.793"/><polygon fill="#475569" points="156.8633,871.793,160.8633,881.793,164.8633,871.793,160.8633,875.793" style="stroke:#475569;stroke-width:1;"/><line style="stroke:#475569;stroke-width:1;" x1="160.8633" x2="160.8633" y1="694.3496" y2="714.3496"/><polygon fill="#475569" points="156.8633,704.3496,160.8633,714.3496,164.8633,704.3496,160.8633,708.3496" style="stroke:#475569;stroke-width:1;"/><line style="stroke:#475569;stroke-width:1;" x1="160.8633" x2="160.8633" y1="246.375" y2="291.6855"/><polygon fill="#475569" points="156.8633,281.6855,160.8633,291.6855,164.8633,281.6855,160.8633,285.6855" style="stroke:#475569;stroke-width:1;"/><line style="stroke:#475569;stroke-width:1;" x1="107.6807" x2="80.5264" y1="893.793" y2="893.793"/><line style="stroke:#475569;stroke-width:1;" x1="80.5264" x2="80.5264" y1="893.793" y2="915.793"/><polygon fill="#475569" points="76.5264,905.793,80.5264,915.793,84.5264,905.793,80.5264,909.793" style="stroke:#475569;stroke-width:1;"/><line style="stroke:#475569;stroke-width:1;" x1="214.0459" x2="241.2002" y1="893.793" y2="893.793"/><line style="stroke:#475569;stroke-width:1;" x1="241.2002" x2="241.2002" y1="893.793" y2="929.0479"/><polygon fill="#475569" points="237.2002,919.0479,241.2002,929.0479,245.2002,919.0479,241.2002,923.0479" style="stroke:#475569;stroke-width:1;"/><line style="stroke:#475569;stroke-width:1;" x1="80.5264" x2="80.5264" y1="949.9258" y2="1008.5684"/><line style="stroke:#475569;stroke-width:1;" x1="80.5264" x2="148.8633" y1="1008.5684" y2="1008.5684"/><polygon fill="#475569" points="138.8633,1004.5684,148.8633,1008.5684,138.8633,1012.5684,142.8633,1008.5684" style="stroke:#475569;stroke-width:1;"/><line style="stroke:#475569;stroke-width:1;" x1="241.2002" x2="241.2002" y1="977.3135" y2="1008.5684"/><line style="stroke:#475569;stroke-width:1;" x1="241.2002" x2="172.8633" y1="1008.5684" y2="1008.5684"/><polygon fill="#475569" points="182.8633,1004.5684,172.8633,1008.5684,182.8633,1012.5684,178.8633,1008.5684" style="stroke:#475569;stroke-width:1;"/><line style="stroke:#475569;stroke-width:1;" x1="160.8633" x2="160.8633" y1="1118.8555" y2="1152.6992"/><polygon fill="#475569" points="156.8633,1142.6992,160.8633,1152.6992,164.8633,1142.6992,160.8633,1146.6992" style="stroke:#475569;stroke-width:1;"/><line style="stroke:#475569;stroke-width:1;" x1="160.8633" x2="160.8633" y1="1186.832" y2="1206.832"/><polygon fill="#475569" points="156.8633,1196.832,160.8633,1206.832,164.8633,1196.832,160.8633,1200.832" style="stroke:#475569;stroke-width:1;"/><line style="stroke:#475569;stroke-width:1;" x1="160.8633" x2="160.8633" y1="1020.5684" y2="1084.7227"/><polygon fill="#475569" points="156.8633,1074.7227,160.8633,1084.7227,164.8633,1074.7227,160.8633,1078.7227" style="stroke:#475569;stroke-width:1;"/><line style="stroke:#475569;stroke-width:1;" x1="160.8633" x2="160.8633" y1="1240.9648" y2="1272.9648"/><polygon fill="#475569" points="156.8633,1262.9648,160.8633,1272.9648,164.8633,1262.9648,160.8633,1266.9648" style="stroke:#475569;stroke-width:1;"/><line style="stroke:#475569;stroke-width:1;" x1="160.8633" x2="160.8633" y1="1321.2305" y2="1341.2305"/><polygon fill="#475569" points="156.8633,1331.2305,160.8633,1341.2305,164.8633,1331.2305,160.8633,1335.2305" style="stroke:#475569;stroke-width:1;"/><line style="stroke:#475569;stroke-width:1;" x1="160.8633" x2="160.8633" y1="1375.3633" y2="1395.3633"/><polygon fill="#475569" points="156.8633,1385.3633,160.8633,1395.3633,164.8633,1385.3633,160.8633,1389.3633" style="stroke:#475569;stroke-width:1;"/><?plantuml-src lPN1Sjem48RlVeejkIG7e41e0cJI0OAdwKn9fj1B9nVPah76GkjACWpfjCzUoHZY49FcqjwitL_QRrU_G2TSfaIH9GGaJ1OACqd7A531EkQ6UNgVfomYcJ0-IZCbImQr6LiWWs-tjMhHZ3yoQ7LAoQ5IkDuUVd9-qUr-w1qctRw_2hO7jxnoBZHynSrcX8eoLPpGEnzsHfT7LVEOXubaMaEhIdCmZPF9pQJdJogK9URMfDthZ8vejjZjYkmi9XJNN2uW8aApgiPkE5cYf6_hRoS-RC6V-9tnnV4DR-ca9DqrL5BT4sMuuIXV1psGLT_4NfJNCXl18411ZocEWJ_LUZ6EIt_eZyluKpJiTV9SyU8WtnzDHWUg4jF5PQVxtg_8xvri2MrxjQlW-ZjJMBzNJB4V6TVs1SAT390eQkrnrGok7sJ0PLCpawLs76YqKII5IE2wPZinjbdFwo-uWL2WPA1OYWEl7r8Gf1uelY2KrMbM3v4o6rUPX4PpV-B0yzBTkA1cAUgHu8lOm3XcOLA3dnv0F_y6LsB5bBRAWOto24vTA79Z-NW69cOIJZTCdzcatQHZN9VrpFeSJYMMqrnQVY50S9aCyhWsc3gnf3podcfJ31Ec3iiNqVz94E8oHSrs1CNoNoByUdP3IsuF6ErSiBqV1vB7kOJxuVnJ1KTcimk10H7Wb1KepX7v8VPtIGeaLEVA1ycbGMYuxoO832tfPaifhQL1ERFaIu0RP1gcTtCmc8LnluZMuNUp4H0Tgx0SUNmMADWSVH6RkJ-Sb1Z3b0HYOLPodQViLFBIHmOqHnHmknqfSQ72myM0yhZZFw0lTcY852xppXi6bsBRH1q-anM1ThTOJUrJWlPviVf2LdROdKQlqJhtIdpxgaPbsWpsI_S20o8bKmF7tfyv4oJSXExEB8N9j7tokG3MtCJWp55uIDiN_9KHkh4pjbx4vDt0_GPOk_m1?></g></svg>