<?plantuml 1.2026.2?><svg xmlns="http://www.w3.org/2000/svg" xmlns:xlink="http://www.w3.org/1999/xlink" contentStyleType="text/css" data-diagram-type="DESCRIPTION" height="721px" preserveAspectRatio="none" style="width:845px;height:721px;background:#FFFFFF;" version="1.1" viewBox="0 0 845 721" width="845px" zoomAndPan="magnify"><title>&lt;b&gt;mise &#8212; Architecture Overview&lt;/b&gt;
La Brigade du Code</title><defs/><g><g class="title" data-source-line="25"><text fill="#000000" font-family="'Segoe UI'" font-size="14" font-weight="bold" lengthAdjust="spacing" textLength="218.2646" x="306.4584" y="23.5352">mise &#8212; Architecture Overview</text><text fill="#000000" font-family="'Segoe UI'" font-size="14" font-weight="bold" lengthAdjust="spacing" textLength="139.7607" x="345.7104" y="40.0234">La Brigade du Code</text></g><!--cluster Your Repository--><g class="cluster" data-qualified-name="Your Repository" data-source-line="27" id="ent0002"><path d="M120.45,59.9766 L229.5506,59.9766 A3.75,3.75 0 0 1 232.0506,62.4766 L239.0506,81.2871 L753.45,81.2871 A2.5,2.5 0 0 1 755.95,83.7871 L755.95,151.6066 A2.5,2.5 0 0 1 753.45,154.1066 L120.45,154.1066 A2.5,2.5 0 0 1 117.95,151.6066 L117.95,62.4766 A2.5,2.5 0 0 1 120.45,59.9766" fill="#EFF6FF" style="stroke:#94A3B8;stroke-width:1;"/><line style="stroke:#94A3B8;stroke-width:1;" x1="117.95" x2="239.0506" y1="81.2871" y2="81.2871"/><text fill="#1E293B" font-family="'Segoe UI'" font-size="13" font-weight="bold" lengthAdjust="spacing" textLength="108.1006" x="121.95" y="74.5449">Your Repository</text></g><!--cluster mise Engine--><g class="cluster" data-qualified-name="mise Engine" data-source-line="35" id="ent0010"><path d="M68.45,213.1066 L150.8396,213.1066 A3.75,3.75 0 0 1 153.3396,215.6066 L160.3396,234.4171 L827.45,234.4171 A2.5,2.5 0 0 1 829.95,236.9171 L829.95,304.7366 A2.5,2.5 0 0 1 827.45,307.2366 L68.45,307.2366 A2.5,2.5 0 0 1 65.95,304.7366 L65.95,215.6066 A2.5,2.5 0 0 1 68.45,213.1066" fill="#F5F3FF" style="stroke:#94A3B8;stroke-width:1;"/><line style="stroke:#94A3B8;stroke-width:1;" x1="65.95" x2="160.3396" y1="234.4171" y2="234.4171"/><text fill="#1E293B" font-family="'Segoe UI'" font-size="13" font-weight="bold" lengthAdjust="spacing" textLength="81.3896" x="69.95" y="227.6749">mise Engine</text></g><!--cluster Runtimes--><g class="cluster" data-qualified-name="Runtimes" data-source-line="43" id="ent0016"><path d="M413.45,340.2366 L477.5647,340.2366 A3.75,3.75 0 0 1 480.0647,342.7366 L487.0647,361.5471 L801.45,361.5471 A2.5,2.5 0 0 1 803.95,364.0471 L803.95,431.8666 A2.5,2.5 0 0 1 801.45,434.3666 L413.45,434.3666 A2.5,2.5 0 0 1 410.95,431.8666 L410.95,342.7366 A2.5,2.5 0 0 1 413.45,340.2366" fill="#FFFBEB" style="stroke:#94A3B8;stroke-width:1;"/><line style="stroke:#94A3B8;stroke-width:1;" x1="410.95" x2="487.0647" y1="361.5471" y2="361.5471"/><text fill="#1E293B" font-family="'Segoe UI'" font-size="13" font-weight="bold" lengthAdjust="spacing" textLength="63.1147" x="414.95" y="354.8049">Runtimes</text></g><!--cluster Shims (~/.local/share/mise/shims)--><g class="cluster" data-qualified-name="Shims ....local.share.mise.shims." data-source-line="49" id="ent0020"><path d="M399.45,467.3666 L627.3851,467.3666 A3.75,3.75 0 0 1 629.8851,469.8666 L636.8851,488.6771 L789.45,488.6771 A2.5,2.5 0 0 1 791.95,491.1771 L791.95,559.0066 A2.5,2.5 0 0 1 789.45,561.5066 L399.45,561.5066 A2.5,2.5 0 0 1 396.95,559.0066 L396.95,469.8666 A2.5,2.5 0 0 1 399.45,467.3666" fill="#F0FDFA" style="stroke:#94A3B8;stroke-width:1;"/><line style="stroke:#94A3B8;stroke-width:1;" x1="396.95" x2="636.8851" y1="488.6771" y2="488.6771"/><text fill="#1E293B" font-family="'Segoe UI'" font-size="13" font-weight="bold" lengthAdjust="spacing" textLength="226.9351" x="400.95" y="481.9349">Shims (/.local/share/mise/shims)</text></g><!--cluster IDEs / Editors--><g class="cluster" data-qualified-name="IDEs . Editors" data-source-line="55" id="ent0024"><path d="M365.45,620.5066 L459.6272,620.5066 A3.75,3.75 0 0 1 462.1272,623.0066 L469.1272,641.8171 L746.45,641.8171 A2.5,2.5 0 0 1 748.95,644.3171 L748.95,712.1366 A2.5,2.5 0 0 1 746.45,714.6366 L365.45,714.6366 A2.5,2.5 0 0 1 362.95,712.1366 L362.95,623.0066 A2.5,2.5 0 0 1 365.45,620.5066" fill="#FAFAF9" style="stroke:#94A3B8;stroke-width:1;"/><line style="stroke:#94A3B8;stroke-width:1;" x1="362.95" x2="469.1272" y1="641.8171" y2="641.8171"/><text fill="#1E293B" font-family="'Segoe UI'" font-size="13" font-weight="bold" lengthAdjust="spacing" textLength="93.1772" x="366.95" y="635.0749">IDEs / Editors</text></g><!--entity toml--><g class="entity" data-qualified-name="Your Repository.toml" data-source-line="28" id="ent0003"><rect fill="#DBEAFE" height="44.1328" rx="2.5" ry="2.5" style="stroke:#94A3B8;stroke-width:1;" width="97.8027" x="384.05" y="93.9766"/><rect fill="#DBEAFE" height="10" style="stroke:#94A3B8;stroke-width:1;" width="15" x="461.8527" y="98.9766"/><rect fill="#DBEAFE" height="2" style="stroke:#94A3B8;stroke-width:1;" width="4" x="459.8527" y="100.9766"/><rect fill="#DBEAFE" height="2" style="stroke:#94A3B8;stroke-width:1;" width="4" x="459.8527" y="104.9766"/><text fill="#1E293B" font-family="'Segoe UI'" font-size="12" lengthAdjust="spacing" textLength="57.8027" x="399.05" y="125.5781">mise.toml</text></g><!--entity lock--><g class="entity" data-qualified-name="Your Repository.lock" data-source-line="29" id="ent0004"><rect fill="#DBEAFE" height="44.1328" rx="2.5" ry="2.5" style="stroke:#94A3B8;stroke-width:1;" width="95.2715" x="644.31" y="93.9766"/><rect fill="#DBEAFE" height="10" style="stroke:#94A3B8;stroke-width:1;" width="15" x="719.5815" y="98.9766"/><rect fill="#DBEAFE" height="2" style="stroke:#94A3B8;stroke-width:1;" width="4" x="717.5815" y="100.9766"/><rect fill="#DBEAFE" height="2" style="stroke:#94A3B8;stroke-width:1;" width="4" x="717.5815" y="104.9766"/><text fill="#1E293B" font-family="'Segoe UI'" font-size="12" lengthAdjust="spacing" textLength="55.2715" x="659.31" y="125.5781">mise.lock</text></g><!--entity bootstrap--><g class="entity" data-qualified-name="Your Repository.bootstrap" data-source-line="30" id="ent0005"><rect fill="#DBEAFE" height="44.1328" rx="2.5" ry="2.5" style="stroke:#94A3B8;stroke-width:1;" width="92.2363" x="516.83" y="93.9766"/><rect fill="#DBEAFE" height="10" style="stroke:#94A3B8;stroke-width:1;" width="15" x="589.0663" y="98.9766"/><rect fill="#DBEAFE" height="2" style="stroke:#94A3B8;stroke-width:1;" width="4" x="587.0663" y="100.9766"/><rect fill="#DBEAFE" height="2" style="stroke:#94A3B8;stroke-width:1;" width="4" x="587.0663" y="104.9766"/><text fill="#1E293B" font-family="'Segoe UI'" font-size="12" lengthAdjust="spacing" textLength="52.2363" x="531.83" y="125.5781">bin/mise</text></g><!--entity envlocal--><g class="entity" data-qualified-name="Your Repository.envlocal" data-source-line="31" id="ent0006"><rect fill="#FFE4E6" height="44.1328" rx="2.5" ry="2.5" style="stroke:#94A3B8;stroke-width:1;" width="95.0195" x="134.44" y="93.9766"/><rect fill="#FFE4E6" height="10" style="stroke:#94A3B8;stroke-width:1;" width="15" x="209.4595" y="98.9766"/><rect fill="#FFE4E6" height="2" style="stroke:#94A3B8;stroke-width:1;" width="4" x="207.4595" y="100.9766"/><rect fill="#FFE4E6" height="2" style="stroke:#94A3B8;stroke-width:1;" width="4" x="207.4595" y="104.9766"/><text fill="#1E293B" font-family="'Segoe UI'" font-size="12" lengthAdjust="spacing" textLength="55.0195" x="149.44" y="125.5781">.env.local</text></g><g class="entity" data-qualified-name="Your Repository.GMN7" data-source-line="32" id="ent0008"><path d="M264.59,98.0866 L264.59,112.0366 L229.8,116.0366 L264.59,120.0366 L264.59,133.9967 A0,0 0 0 0 264.59,133.9967 L349.3019,133.9967 A0,0 0 0 0 349.3019,133.9967 L349.3019,108.0866 L339.3019,98.0866 L264.59,98.0866 A0,0 0 0 0 264.59,98.0866" fill="#FFFBEB" style="stroke:#94A3B8;stroke-width:0.5;"/><path d="M339.3019,98.0866 L339.3019,108.0866 L349.3019,108.0866 L339.3019,98.0866" fill="#FFFBEB" style="stroke:#94A3B8;stroke-width:0.5;"/><text fill="#78350F" font-family="'Segoe UI'" font-size="11" lengthAdjust="spacing" textLength="55.3276" x="270.59" y="113.7213">gitignored</text><text fill="#78350F" font-family="'Segoe UI'" font-size="11" lengthAdjust="spacing" textLength="63.7119" x="270.59" y="126.6764">secrets only</text></g><!--entity tools--><g class="entity" data-qualified-name="mise Engine.tools" data-source-line="36" id="ent0011"><rect fill="#EDE9FE" height="44.1328" rx="2.5" ry="2.5" style="stroke:#94A3B8;stroke-width:1;" width="119.7109" x="529.09" y="247.1066"/><rect fill="#EDE9FE" height="10" style="stroke:#94A3B8;stroke-width:1;" width="15" x="628.8009" y="252.1066"/><rect fill="#EDE9FE" height="2" style="stroke:#94A3B8;stroke-width:1;" width="4" x="626.8009" y="254.1066"/><rect fill="#EDE9FE" height="2" style="stroke:#94A3B8;stroke-width:1;" width="4" x="626.8009" y="258.1066"/><text fill="#1E293B" font-family="'Segoe UI'" font-size="12" lengthAdjust="spacing" textLength="79.7109" x="544.09" y="278.7081">Tool Manager</text></g><!--entity tasks--><g class="entity" data-qualified-name="mise Engine.tasks" data-source-line="37" id="ent0012"><rect fill="#EDE9FE" height="44.1328" rx="2.5" ry="2.5" style="stroke:#94A3B8;stroke-width:1;" width="112.668" x="381.62" y="247.1066"/><rect fill="#EDE9FE" height="10" style="stroke:#94A3B8;stroke-width:1;" width="15" x="474.288" y="252.1066"/><rect fill="#EDE9FE" height="2" style="stroke:#94A3B8;stroke-width:1;" width="4" x="472.288" y="254.1066"/><rect fill="#EDE9FE" height="2" style="stroke:#94A3B8;stroke-width:1;" width="4" x="472.288" y="258.1066"/><text fill="#1E293B" font-family="'Segoe UI'" font-size="12" lengthAdjust="spacing" textLength="72.668" x="396.62" y="278.7081">Task Runner</text></g><!--entity env--><g class="entity" data-qualified-name="mise Engine.env" data-source-line="38" id="ent0013"><rect fill="#EDE9FE" height="44.1328" rx="2.5" ry="2.5" style="stroke:#94A3B8;stroke-width:1;" width="114.0742" x="81.91" y="247.1066"/><rect fill="#EDE9FE" height="10" style="stroke:#94A3B8;stroke-width:1;" width="15" x="175.9842" y="252.1066"/><rect fill="#EDE9FE" height="2" style="stroke:#94A3B8;stroke-width:1;" width="4" x="173.9842" y="254.1066"/><rect fill="#EDE9FE" height="2" style="stroke:#94A3B8;stroke-width:1;" width="4" x="173.9842" y="258.1066"/><text fill="#1E293B" font-family="'Segoe UI'" font-size="12" lengthAdjust="spacing" textLength="74.0742" x="96.91" y="278.7081">Env Manager</text></g><!--entity trust--><g class="entity" data-qualified-name="mise Engine.trust" data-source-line="39" id="ent0014"><rect fill="#EDE9FE" height="44.1328" rx="2.5" ry="2.5" style="stroke:#94A3B8;stroke-width:1;" width="115.5742" x="231.16" y="247.1066"/><rect fill="#EDE9FE" height="10" style="stroke:#94A3B8;stroke-width:1;" width="15" x="326.7342" y="252.1066"/><rect fill="#EDE9FE" height="2" style="stroke:#94A3B8;stroke-width:1;" width="4" x="324.7342" y="254.1066"/><rect fill="#EDE9FE" height="2" style="stroke:#94A3B8;stroke-width:1;" width="4" x="324.7342" y="258.1066"/><text fill="#1E293B" font-family="'Segoe UI'" font-size="12" lengthAdjust="spacing" textLength="75.5742" x="246.16" y="278.7081">Trust System</text></g><!--entity lockfile--><g class="entity" data-qualified-name="mise Engine.lockfile" data-source-line="40" id="ent0015"><rect fill="#EDE9FE" height="44.1328" rx="2.5" ry="2.5" style="stroke:#94A3B8;stroke-width:1;" width="129.9883" x="683.96" y="247.1066"/><rect fill="#EDE9FE" height="10" style="stroke:#94A3B8;stroke-width:1;" width="15" x="793.9483" y="252.1066"/><rect fill="#EDE9FE" height="2" style="stroke:#94A3B8;stroke-width:1;" width="4" x="791.9483" y="254.1066"/><rect fill="#EDE9FE" height="2" style="stroke:#94A3B8;stroke-width:1;" width="4" x="791.9483" y="258.1066"/><text fill="#1E293B" font-family="'Segoe UI'" font-size="12" lengthAdjust="spacing" textLength="89.9883" x="698.96" y="278.7081">Lockfile System</text></g><!--entity java--><g class="entity" data-qualified-name="Runtimes.java" data-source-line="44" id="ent0017"><rect fill="#FEF3C7" height="44.1328" rx="2.5" ry="2.5" style="stroke:#94A3B8;stroke-width:1;" width="82.1699" x="426.86" y="374.2366"/><rect fill="#FEF3C7" height="10" style="stroke:#94A3B8;stroke-width:1;" width="15" x="489.0299" y="379.2366"/><rect fill="#FEF3C7" height="2" style="stroke:#94A3B8;stroke-width:1;" width="4" x="487.0299" y="381.2366"/><rect fill="#FEF3C7" height="2" style="stroke:#94A3B8;stroke-width:1;" width="4" x="487.0299" y="385.2366"/><text fill="#1E293B" font-family="'Segoe UI'" font-size="12" lengthAdjust="spacing" textLength="42.1699" x="441.86" y="405.8381">Java 25</text></g><!--entity node--><g class="entity" data-qualified-name="Runtimes.node" data-source-line="45" id="ent0018"><rect fill="#FEF3C7" height="44.1328" rx="2.5" ry="2.5" style="stroke:#94A3B8;stroke-width:1;" width="89.4473" x="544.23" y="374.2366"/><rect fill="#FEF3C7" height="10" style="stroke:#94A3B8;stroke-width:1;" width="15" x="613.6773" y="379.2366"/><rect fill="#FEF3C7" height="2" style="stroke:#94A3B8;stroke-width:1;" width="4" x="611.6773" y="381.2366"/><rect fill="#FEF3C7" height="2" style="stroke:#94A3B8;stroke-width:1;" width="4" x="611.6773" y="385.2366"/><text fill="#1E293B" font-family="'Segoe UI'" font-size="12" lengthAdjust="spacing" textLength="49.4473" x="559.23" y="405.8381">Node 24</text></g><!--entity maven--><g class="entity" data-qualified-name="Runtimes.maven" data-source-line="46" id="ent0019"><rect fill="#FEF3C7" height="44.1328" rx="2.5" ry="2.5" style="stroke:#94A3B8;stroke-width:1;" width="119.0488" x="668.42" y="374.2366"/><rect fill="#FEF3C7" height="10" style="stroke:#94A3B8;stroke-width:1;" width="15" x="767.4688" y="379.2366"/><rect fill="#FEF3C7" height="2" style="stroke:#94A3B8;stroke-width:1;" width="4" x="765.4688" y="381.2366"/><rect fill="#FEF3C7" height="2" style="stroke:#94A3B8;stroke-width:1;" width="4" x="765.4688" y="385.2366"/><text fill="#1E293B" font-family="'Segoe UI'" font-size="12" lengthAdjust="spacing" textLength="79.0488" x="683.42" y="405.8381">Maven 3.9.14</text></g><!--entity jshim--><g class="entity" data-qualified-name="Shims ....local.share.mise.shims..jshim" data-source-line="50" id="ent0021"><rect fill="#CCFBF1" height="44.1328" rx="2.5" ry="2.5" style="stroke:#94A3B8;stroke-width:1;" width="95.1484" x="413.38" y="501.3666"/><rect fill="#CCFBF1" height="10" style="stroke:#94A3B8;stroke-width:1;" width="15" x="488.5284" y="506.3666"/><rect fill="#CCFBF1" height="2" style="stroke:#94A3B8;stroke-width:1;" width="4" x="486.5284" y="508.3666"/><rect fill="#CCFBF1" height="2" style="stroke:#94A3B8;stroke-width:1;" width="4" x="486.5284" y="512.3666"/><text fill="#1E293B" font-family="'Segoe UI'" font-size="12" lengthAdjust="spacing" textLength="55.1484" x="428.38" y="532.9681">java shim</text></g><!--entity nshim--><g class="entity" data-qualified-name="Shims ....local.share.mise.shims..nshim" data-source-line="51" id="ent0022"><rect fill="#CCFBF1" height="44.1328" rx="2.5" ry="2.5" style="stroke:#94A3B8;stroke-width:1;" width="101.0898" x="543.4" y="501.3666"/><rect fill="#CCFBF1" height="10" style="stroke:#94A3B8;stroke-width:1;" width="15" x="624.4898" y="506.3666"/><rect fill="#CCFBF1" height="2" style="stroke:#94A3B8;stroke-width:1;" width="4" x="622.4898" y="508.3666"/><rect fill="#CCFBF1" height="2" style="stroke:#94A3B8;stroke-width:1;" width="4" x="622.4898" y="512.3666"/><text fill="#1E293B" font-family="'Segoe UI'" font-size="12" lengthAdjust="spacing" textLength="61.0898" x="558.4" y="532.9681">node shim</text></g><!--entity mshim--><g class="entity" data-qualified-name="Shims ....local.share.mise.shims..mshim" data-source-line="52" id="ent0023"><rect fill="#CCFBF1" height="44.1328" rx="2.5" ry="2.5" style="stroke:#94A3B8;stroke-width:1;" width="96.8945" x="679.5" y="501.3666"/><rect fill="#CCFBF1" height="10" style="stroke:#94A3B8;stroke-width:1;" width="15" x="756.3945" y="506.3666"/><rect fill="#CCFBF1" height="2" style="stroke:#94A3B8;stroke-width:1;" width="4" x="754.3945" y="508.3666"/><rect fill="#CCFBF1" height="2" style="stroke:#94A3B8;stroke-width:1;" width="4" x="754.3945" y="512.3666"/><text fill="#1E293B" font-family="'Segoe UI'" font-size="12" lengthAdjust="spacing" textLength="56.8945" x="694.5" y="532.9681">mvn shim</text></g><!--entity intellij--><g class="entity" data-qualified-name="IDEs . Editors.intellij" data-source-line="56" id="ent0025"><rect fill="#F5F5F4" height="44.1328" rx="2.5" ry="2.5" style="stroke:#94A3B8;stroke-width:1;" width="107.2422" x="379.33" y="654.5066"/><rect fill="#F5F5F4" height="10" style="stroke:#94A3B8;stroke-width:1;" width="15" x="466.5722" y="659.5066"/><rect fill="#F5F5F4" height="2" style="stroke:#94A3B8;stroke-width:1;" width="4" x="464.5722" y="661.5066"/><rect fill="#F5F5F4" height="2" style="stroke:#94A3B8;stroke-width:1;" width="4" x="464.5722" y="665.5066"/><text fill="#1E293B" font-family="'Segoe UI'" font-size="12" lengthAdjust="spacing" textLength="67.2422" x="394.33" y="686.1081">IntelliJ IDEA</text></g><!--entity vscode--><g class="entity" data-qualified-name="IDEs . Editors.vscode" data-source-line="57" id="ent0026"><rect fill="#F5F5F4" height="44.1328" rx="2.5" ry="2.5" style="stroke:#94A3B8;stroke-width:1;" width="84.2207" x="521.84" y="654.5066"/><rect fill="#F5F5F4" height="10" style="stroke:#94A3B8;stroke-width:1;" width="15" x="586.0607" y="659.5066"/><rect fill="#F5F5F4" height="2" style="stroke:#94A3B8;stroke-width:1;" width="4" x="584.0607" y="661.5066"/><rect fill="#F5F5F4" height="2" style="stroke:#94A3B8;stroke-width:1;" width="4" x="584.0607" y="665.5066"/><text fill="#1E293B" font-family="'Segoe UI'" font-size="12" lengthAdjust="spacing" textLength="44.2207" x="536.84" y="686.1081">VSCode</text></g><!--entity terminal--><g class="entity" data-qualified-name="IDEs . Editors.terminal" data-source-line="58" id="ent0027"><rect fill="#F5F5F4" height="44.1328" rx="2.5" ry="2.5" style="stroke:#94A3B8;stroke-width:1;" width="91.3984" x="641.25" y="654.5066"/><rect fill="#F5F5F4" height="10" style="stroke:#94A3B8;stroke-width:1;" width="15" x="712.6484" y="659.5066"/><rect fill="#F5F5F4" height="2" style="stroke:#94A3B8;stroke-width:1;" width="4" x="710.6484" y="661.5066"/><rect fill="#F5F5F4" height="2" style="stroke:#94A3B8;stroke-width:1;" width="4" x="710.6484" y="665.5066"/><text fill="#1E293B" font-family="'Segoe UI'" font-size="12" lengthAdjust="spacing" textLength="51.3984" x="656.25" y="686.1081">Terminal</text></g><!--link toml to tools--><g class="link" data-entity-1="ent0003" data-entity-2="ent0011" data-link-type="dependency" data-source-line="61" id="lnk28"><path d="M465.87,138.4466 C478.9,147.5566 493.67,158.6966 505.95,170.1066 C531.93,194.2366 554.0332,221.4468 569.7932,242.2168" fill="none" id="toml-to-tools" style="stroke:#475569;stroke-width:1;"/><polygon fill="#475569" points="573.42,246.9966,571.1663,237.409,570.3976,243.0134,564.7933,242.2448,573.42,246.9966" style="stroke:#475569;stroke-width:1;"/><text fill="#475569" font-family="'Segoe UI'" font-size="11" lengthAdjust="spacing" textLength="86.6196" x="531.65" y="188.2413">defines versions</text></g><!--link toml to tasks--><g class="link" data-entity-1="ent0003" data-entity-2="ent0012" data-link-type="dependency" data-source-line="62" id="lnk29"><path d="M431.46,138.4566 C430.86,148.1166 430.24,159.6866 429.95,170.1066 C429.61,182.0966 429.28,185.1266 429.95,197.1066 C430.89,213.8366 432.2784,226.7377 434.1284,240.8177" fill="none" id="toml-to-tasks" style="stroke:#475569;stroke-width:1;"/><polygon fill="#475569" points="434.91,246.7666,437.7035,237.3222,434.2586,241.8092,429.7716,238.3643,434.91,246.7666" style="stroke:#475569;stroke-width:1;"/><text fill="#475569" font-family="'Segoe UI'" font-size="11" lengthAdjust="spacing" textLength="70.1519" x="430.95" y="188.2413">defines tasks</text></g><!--link toml to env--><g class="link" data-entity-1="ent0003" data-entity-2="ent0013" data-link-type="dependency" data-source-line="63" id="lnk30"><path d="M408.4,138.6066 C396.67,147.5766 381.94,157.0666 366.95,162.1066 C332.57,173.6566 235.47,152.1766 203.95,170.1066 C174.3,186.9766 157.8983,217.9957 148.5383,241.3957" fill="none" id="toml-to-env" style="stroke:#475569;stroke-width:1;"/><polygon fill="#475569" points="146.31,246.9666,153.3664,240.0958,148.167,242.3242,145.9386,237.1247,146.31,246.9666" style="stroke:#475569;stroke-width:1;"/><text fill="#475569" font-family="'Segoe UI'" font-size="11" lengthAdjust="spacing" textLength="86.3242" x="204.95" y="188.2413">defines env vars</text></g><!--link lock to lockfile--><g class="link" data-entity-1="ent0004" data-entity-2="ent0015" data-link-type="dependency" data-source-line="64" id="lnk31"><path d="M720.03,138.4666 C729.34,147.1866 738.67,158.0566 743.95,170.1066 C754.76,194.7766 754.7282,220.3765 752.6682,240.9365" fill="none" id="lock-to-lockfile" style="stroke:#475569;stroke-width:1;"/><polygon fill="#475569" points="752.07,246.9066,756.9473,238.3502,752.5685,241.9315,748.9872,237.5526,752.07,246.9066" style="stroke:#475569;stroke-width:1;"/><text fill="#475569" font-family="'Segoe UI'" font-size="11" lengthAdjust="spacing" textLength="84.9814" x="752.2" y="188.2413">pins checksums</text></g><!--link bootstrap to tools--><g class="link" data-entity-1="ent0005" data-entity-2="ent0011" data-link-type="dependency" data-source-line="65" id="lnk32"><path d="M594.38,138.5666 C612.3,151.1766 631.64,165.4966 633.95,170.1066 C647.04,196.2366 631.3951,222.3985 614.1051,242.3885" fill="none" id="bootstrap-to-tools" style="stroke:#475569;stroke-width:1;stroke-dasharray:7,7;"/><polygon fill="#475569" points="610.18,246.9266,619.093,242.7362,613.4509,243.1449,613.0423,237.5028,610.18,246.9266" style="stroke:#475569;stroke-width:1;"/><text fill="#475569" font-family="'Segoe UI'" font-size="11" lengthAdjust="spacing" textLength="96.5723" x="639.22" y="181.7413">auto-installs mise</text><text fill="#475569" font-family="'Segoe UI'" font-size="11" lengthAdjust="spacing" textLength="72.1123" x="651.45" y="194.6964">if not present</text></g><!--link envlocal to env--><g class="link" data-entity-1="ent0006" data-entity-2="ent0013" data-link-type="dependency" data-source-line="66" id="lnk33"><path d="M133.99,119.4366 C98.32,124.0466 51.84,136.6066 27.95,170.1066 C6,200.8766 40.4435,226.0655 78.3635,244.1355" fill="none" id="envlocal-to-env" style="stroke:#475569;stroke-width:1;"/><polygon fill="#475569" points="83.78,246.7166,77.3761,239.2339,79.2663,244.5656,73.9346,246.4559,83.78,246.7166" style="stroke:#475569;stroke-width:1;"/><text fill="#475569" font-family="'Segoe UI'" font-size="11" lengthAdjust="spacing" textLength="88.231" x="28.95" y="188.2413">merged via _.file</text></g><!--link tools to java--><g class="link" data-entity-1="ent0011" data-entity-2="ent0017" data-link-type="dependency" data-source-line="68" id="lnk34"><path d="M567.25,291.5466 C555.27,303.4366 540.18,318.5466 526.95,332.2366 C513.71,345.9266 503.1701,357.1574 491.7901,369.4274" fill="none" id="tools-to-java" style="stroke:#475569;stroke-width:1;"/><polygon fill="#475569" points="487.71,373.8266,496.7629,369.9478,491.1101,370.1606,490.8973,364.5077,487.71,373.8266" style="stroke:#475569;stroke-width:1;"/></g><!--link tools to node--><g class="link" data-entity-1="ent0011" data-entity-2="ent0018" data-link-type="dependency" data-source-line="69" id="lnk35"><path d="M588.95,291.6866 C588.95,314.7466 588.95,345.1266 588.95,368.0766" fill="none" id="tools-to-node" style="stroke:#475569;stroke-width:1;"/><polygon fill="#475569" points="588.95,374.0766,592.95,365.0766,588.95,369.0766,584.95,365.0766,588.95,374.0766" style="stroke:#475569;stroke-width:1;"/></g><!--link tools to maven--><g class="link" data-entity-1="ent0011" data-entity-2="ent0019" data-link-type="dependency" data-source-line="70" id="lnk36"><path d="M612.84,291.6866 C638.46,314.7466 674.4102,347.1128 699.9102,370.0628" fill="none" id="tools-to-maven" style="stroke:#475569;stroke-width:1;"/><polygon fill="#475569" points="704.37,374.0766,700.3562,365.0827,700.6535,370.7317,695.0045,371.0291,704.37,374.0766" style="stroke:#475569;stroke-width:1;"/></g><!--link java to jshim--><g class="link" data-entity-1="ent0017" data-entity-2="ent0021" data-link-type="dependency" data-source-line="72" id="lnk37"><path d="M466.75,418.8166 C465.46,441.8766 463.7541,472.2659 462.4741,495.2159" fill="none" id="java-to-jshim" style="stroke:#475569;stroke-width:1;"/><polygon fill="#475569" points="462.14,501.2066,466.635,492.4433,462.4184,496.2143,458.6474,491.9978,462.14,501.2066" style="stroke:#475569;stroke-width:1;"/></g><!--link node to nshim--><g class="link" data-entity-1="ent0018" data-entity-2="ent0022" data-link-type="dependency" data-source-line="73" id="lnk38"><path d="M589.81,418.8166 C590.73,441.8766 591.9397,472.2614 592.8597,495.2114" fill="none" id="node-to-nshim" style="stroke:#475569;stroke-width:1;"/><polygon fill="#475569" points="593.1,501.2066,596.7363,492.0536,592.8997,496.2106,588.7427,492.374,593.1,501.2066" style="stroke:#475569;stroke-width:1;"/></g><!--link maven to mshim--><g class="link" data-entity-1="ent0019" data-entity-2="ent0023" data-link-type="dependency" data-source-line="74" id="lnk39"><path d="M727.95,418.8166 C727.95,441.8766 727.95,472.2566 727.95,495.2066" fill="none" id="maven-to-mshim" style="stroke:#475569;stroke-width:1;"/><polygon fill="#475569" points="727.95,501.2066,731.95,492.2066,727.95,496.2066,723.95,492.2066,727.95,501.2066" style="stroke:#475569;stroke-width:1;"/></g><!--link jshim to intellij--><g class="link" data-entity-1="ent0021" data-entity-2="ent0025" data-link-type="dependency" data-source-line="76" id="lnk40"><path d="M435.47,545.9466 C426.93,554.7466 418.44,565.6466 413.95,577.5066 C404.3,602.9666 411.2717,628.5594 419.9317,648.8194" fill="none" id="jshim-to-intellij" style="stroke:#475569;stroke-width:1;"/><polygon fill="#475569" points="422.29,654.3366,422.4307,644.4887,420.3248,649.739,415.0745,647.6331,422.29,654.3366" style="stroke:#475569;stroke-width:1;"/><text fill="#475569" font-family="'Segoe UI'" font-size="11" lengthAdjust="spacing" textLength="61.6924" x="424.7227" y="589.1413">transparent</text><text fill="#475569" font-family="'Segoe UI'" font-size="11" lengthAdjust="spacing" textLength="81.2378" x="414.95" y="602.0964">version routing</text></g><!--link nshim to vscode--><g class="link" data-entity-1="ent0022" data-entity-2="ent0026" data-link-type="dependency" data-source-line="77" id="lnk41"><path d="M586.66,545.9266 C583.63,555.5066 580.27,566.9766 577.95,577.5066 C572.16,603.7066 568.8837,628.4223 566.6937,648.4023" fill="none" id="nshim-to-vscode" style="stroke:#475569;stroke-width:1;"/><polygon fill="#475569" points="566.04,654.3666,570.9968,645.856,566.5848,649.3963,563.0444,644.9843,566.04,654.3666" style="stroke:#475569;stroke-width:1;"/><text fill="#475569" font-family="'Segoe UI'" font-size="11" lengthAdjust="spacing" textLength="61.6924" x="588.7227" y="589.1413">transparent</text><text fill="#475569" font-family="'Segoe UI'" font-size="11" lengthAdjust="spacing" textLength="81.2378" x="578.95" y="602.0964">version routing</text></g><!--link jshim to terminal--><g class="link" data-entity-1="ent0021" data-entity-2="ent0027" data-link-type="dependency" data-source-line="78" id="lnk42"><path d="M481.9,546.0066 C501.51,564.7566 532.57,590.9866 564.95,604.5066 C589.37,614.6966 600.24,600.7466 623.95,612.5066 C643.22,622.0566 656.3822,635.1591 667.8222,649.3991" fill="none" id="jshim-to-terminal" style="stroke:#475569;stroke-width:1;"/><polygon fill="#475569" points="671.58,654.0766,669.0617,644.5551,668.4485,650.1786,662.825,649.5655,671.58,654.0766" style="stroke:#475569;stroke-width:1;"/></g><!--link nshim to terminal--><g class="link" data-entity-1="ent0022" data-entity-2="ent0027" data-link-type="dependency" data-source-line="79" id="lnk43"><path d="M632.7,545.9266 C644.67,554.3266 656.83,564.9766 664.95,577.5066 C680.03,600.7866 684.4464,626.9915 685.9364,648.0415" fill="none" id="nshim-to-terminal" style="stroke:#475569;stroke-width:1;"/><polygon fill="#475569" points="686.36,654.0266,689.7146,644.7666,686.007,649.039,681.7345,645.3315,686.36,654.0266" style="stroke:#475569;stroke-width:1;"/></g><!--link mshim to terminal--><g class="link" data-entity-1="ent0023" data-entity-2="ent0027" data-link-type="dependency" data-source-line="80" id="lnk44"><path d="M722.16,545.7666 C714.35,574.5766 702.081,619.8059 694.281,648.5559" fill="none" id="mshim-to-terminal" style="stroke:#475569;stroke-width:1;"/><polygon fill="#475569" points="692.71,654.3466,698.927,646.7079,694.0192,649.521,691.2061,644.6132,692.71,654.3466" style="stroke:#475569;stroke-width:1;"/></g><!--link trust to toml--><g class="link" data-entity-1="ent0014" data-entity-2="ent0003" data-link-type="dependency" data-source-line="82" id="lnk45"><path d="M289.03,246.7366 C290.35,224.1866 296.11,189.3566 317.95,170.1066 C334.5,155.5166 346.46,170.2966 366.95,162.1066 C381.25,156.3866 390.7431,150.734 402.3631,142.104" fill="none" id="trust-to-toml" style="stroke:#475569;stroke-width:1;"/><polygon fill="#475569" points="407.18,138.5266,397.5698,140.6814,403.166,141.5077,402.3396,147.1039,407.18,138.5266" style="stroke:#475569;stroke-width:1;"/><text fill="#475569" font-family="'Segoe UI'" font-size="11" lengthAdjust="spacing" textLength="102.4214" x="318.95" y="181.7413">mise trust required</text><text fill="#475569" font-family="'Segoe UI'" font-size="11" lengthAdjust="spacing" textLength="91.9746" x="324.1734" y="194.6964">before hooks run</text></g><?plantuml-src XPNHRjis58RlzHG7zirs4RkExIGkYW2s8m8fscoeim55CmoqTMopbaYFf1HamuO-H9-mJz93qfPaHMli6_Bmu-7Fmv-KsGcvvvfdiEIhtKQhN2PpbIeDZrjXCJBbU89hdgUMAMdlU8RGMU168Vnsssc75k9lXC6mDZZLMZs6vDtHvNXyCMaEkdal0Y7n8AgD_KhQ-GPdIYUe3mace-bmTlL_qFrMh7OIZO71SyIlOfzIXALAa_Rnmog3-7modBMiqgXcbrsnAPlNHSzLjbSIfVsnx0RMBho4VYJj10fLF6yRNcnveXw5tC2QfmRhck-KVQ7AddYsUSPcyQn1rQHUNWt7hrZBU7dMLbWwZiwRvNKc3CAtBr_942jdqPNDDS8l1Uf2uEER_lBwGRxZCDDYmnE49AUD9TY9edqu6UXyLBc63xXNHbYbdphGZHcxO0p-YG0-kVmzgxBq3-06N0CEl-xDB9wok8HIjTfvo3LQeAMGVGTwPgcKDLRpVGFgeInS9XxMevxlE8YnU1HV42If6a3xsLfGwmfv3HjXnKOgZSc3DBZIQ0qecJv5_zQswmiMousGI5jbOpOyRlLUgHJUSqcOFknMfSOBZ6_YIH1upyqEFkHI7Xdg6sX0iInE4f76OprgcNHkB2oUZCKifFA1K-WTrN8jwAnhN7gC7RdwzaYQ5HcQpj5cOMzlUS7XVEpdVtRjyjTbCHlEBnrqHyw0yv67f6ktGUzvWHA6lKbl4CZC1sfGNSvYAp83F_tN3uVQDrkkqTk0cZJqizFvYjsmQT3fjRcHeDIrZXBcSpPZ0mTvRIKasw6ia1MJrPWIgkkylOaDz25Et1tmnPlIVn94tKgBQIhU0b5Jdq-4o6Tle34REUhtXRjPVhWmgqRvIkeUTIRamTxsq3cbI5TrpyxEhYiVaiVfaqBEfILG6w6aQQAb7IlKnnfSvSYASx62QnDL5zYXfTq8tGjfOBN5rSxacOcgMzphdShakLLd15kUKioTzuCKQtTrOQ_HqBCQLNUxAIX3lS442i7XpvvRsXN4vNQWSqYjwxnGwtepHb6mkCVToKV1pPxt_U1PFy7te-0q5oYFzZLTI2uDlS2aza4U2Wxqa5lw64Iod56UzWipgZMEvrvBKeQovw4el0p12fbxwVmZ5g8Q_yg5V_AMkAQt3xPAaGLqBgFl?></g></svg>