<?plantuml 1.2026.2?><svg xmlns="http://www.w3.org/2000/svg" xmlns:xlink="http://www.w3.org/1999/xlink" contentStyleType="text/css" data-diagram-type="DESCRIPTION" height="538px" preserveAspectRatio="none" style="width:1101px;height:538px;background:#FFFFFF;" version="1.1" viewBox="0 0 1101 538" width="1101px" zoomAndPan="magnify"><title>&lt;b&gt;mise Environment Scoping&lt;/b&gt;
Parent &#8594; Child Inheritance</title><defs/><g><g class="title" data-source-line="25"><text fill="#000000" font-family="'Segoe UI'" font-size="14" font-weight="bold" lengthAdjust="spacing" textLength="191.7344" x="448.0378" y="23.5352">mise Environment Scoping</text><text fill="#000000" font-family="'Segoe UI'" font-size="14" font-weight="bold" lengthAdjust="spacing" textLength="192.5479" x="447.6311" y="40.0234">Parent &#8594; Child Inheritance</text></g><!--cluster / (root)--><g class="cluster" data-qualified-name=". .root." data-source-line="27" id="ent0002"><path d="M199.31,99.4766 L249.3647,99.4766 A3.75,3.75 0 0 1 251.8647,101.9766 L258.8647,120.7871 L390.31,120.7871 A2.5,2.5 0 0 1 392.81,123.2871 L392.81,241.5166 A2.5,2.5 0 0 1 390.31,244.0166 L199.31,244.0166 A2.5,2.5 0 0 1 196.81,241.5166 L196.81,101.9766 A2.5,2.5 0 0 1 199.31,99.4766" fill="#EFF6FF" style="stroke:#94A3B8;stroke-width:1;"/><line style="stroke:#94A3B8;stroke-width:1;" x1="196.81" x2="258.8647" y1="120.7871" y2="120.7871"/><text fill="#1E293B" font-family="'Segoe UI'" font-size="13" font-weight="bold" lengthAdjust="spacing" textLength="49.0547" x="200.81" y="114.0449">/ (root)</text></g><!--cluster MISE_ENV profiles--><g class="cluster" data-qualified-name="MISE_ENV profiles" data-source-line="31" id="ent0004"><path d="M528.31,106.5466 L649.9599,106.5466 A3.75,3.75 0 0 1 652.4599,109.0466 L659.4599,127.8571 L1092.31,127.8571 A2.5,2.5 0 0 1 1094.81,130.3571 L1094.81,234.4466 A2.5,2.5 0 0 1 1092.31,236.9466 L528.31,236.9466 A2.5,2.5 0 0 1 525.81,234.4466 L525.81,109.0466 A2.5,2.5 0 0 1 528.31,106.5466" fill="#F0F9FF" style="stroke:#94A3B8;stroke-width:1;"/><line style="stroke:#94A3B8;stroke-width:1;" x1="525.81" x2="659.4599" y1="127.8571" y2="127.8571"/><text fill="#1E293B" font-family="'Segoe UI'" font-size="13" font-weight="bold" lengthAdjust="spacing" textLength="120.6499" x="529.81" y="121.1149">MISE_ENV profiles</text></g><!--cluster /backend--><g class="cluster" data-qualified-name=".backend" data-source-line="36" id="ent0007"><path d="M47.31,290.0166 L111.831,290.0166 A3.75,3.75 0 0 1 114.331,292.5166 L121.331,311.3271 L222.31,311.3271 A2.5,2.5 0 0 1 224.81,313.8271 L224.81,446.1766 A2.5,2.5 0 0 1 222.31,448.6766 L47.31,448.6766 A2.5,2.5 0 0 1 44.81,446.1766 L44.81,292.5166 A2.5,2.5 0 0 1 47.31,290.0166" fill="#FFF7ED" style="stroke:#94A3B8;stroke-width:1;"/><line style="stroke:#94A3B8;stroke-width:1;" x1="44.81" x2="121.331" y1="311.3271" y2="311.3271"/><text fill="#1E293B" font-family="'Segoe UI'" font-size="13" font-weight="bold" lengthAdjust="spacing" textLength="63.521" x="48.81" y="304.5849">/backend</text></g><!--cluster /frontend--><g class="cluster" data-qualified-name=".frontend" data-source-line="40" id="ent0009"><path d="M262.31,290.0166 L328.8369,290.0166 A3.75,3.75 0 0 1 331.3369,292.5166 L338.3369,311.3271 L491.31,311.3271 A2.5,2.5 0 0 1 493.81,313.8271 L493.81,446.1766 A2.5,2.5 0 0 1 491.31,448.6766 L262.31,448.6766 A2.5,2.5 0 0 1 259.81,446.1766 L259.81,292.5166 A2.5,2.5 0 0 1 262.31,290.0166" fill="#F0FDF4" style="stroke:#94A3B8;stroke-width:1;"/><line style="stroke:#94A3B8;stroke-width:1;" x1="259.81" x2="338.3369" y1="311.3271" y2="311.3271"/><text fill="#1E293B" font-family="'Segoe UI'" font-size="13" font-weight="bold" lengthAdjust="spacing" textLength="65.5269" x="263.81" y="304.5849">/frontend</text></g><!--entity root--><g class="entity" data-qualified-name=". .root..root" data-source-line="28" id="ent0003"><rect fill="#DBEAFE" height="76.5313" rx="2.5" ry="2.5" style="stroke:#94A3B8;stroke-width:1;" width="163.2441" x="213.19" y="151.4766"/><text fill="#1E293B" font-family="'Segoe UI'" font-size="12" font-weight="bold" lengthAdjust="spacing" textLength="60.3867" x="223.19" y="173.0781">mise.toml</text><text fill="#1E293B" font-family="'Segoe UI'" font-size="12" lengthAdjust="spacing" textLength="114.0234" x="223.19" y="187.2109">CHEF_NAME = Chef</text><text fill="#1E293B" font-family="'Segoe UI'" font-size="12" lengthAdjust="spacing" textLength="143.2441" x="223.19" y="201.3438">APP_ENV = development</text><text fill="#1E293B" font-family="'Segoe UI'" font-size="12" lengthAdjust="spacing" textLength="99.9844" x="223.19" y="215.4766">_.file = .env.local</text></g><!--entity dev--><g class="entity" data-qualified-name="MISE_ENV profiles.dev" data-source-line="32" id="ent0005"><rect fill="#E0F2FE" height="62.3984" rx="2.5" ry="2.5" style="stroke:#94A3B8;stroke-width:1;" width="240.1133" x="541.75" y="158.5466"/><text fill="#1E293B" font-family="'Segoe UI'" font-size="12" font-weight="bold" lengthAdjust="spacing" textLength="143.4141" x="551.75" y="180.1481">mise.development.toml</text><text fill="#1E293B" font-family="'Segoe UI'" font-size="12" lengthAdjust="spacing" textLength="220.1133" x="551.75" y="194.2809">DATABASE_URL = localhost:5432/dev</text><text fill="#1E293B" font-family="'Segoe UI'" font-size="12" lengthAdjust="spacing" textLength="120.5566" x="551.75" y="208.4138">LOG_LEVEL = DEBUG</text></g><!--entity staging--><g class="entity" data-qualified-name="MISE_ENV profiles.staging" data-source-line="33" id="ent0006"><rect fill="#E0F2FE" height="62.3984" rx="2.5" ry="2.5" style="stroke:#94A3B8;stroke-width:1;" width="262.7773" x="816.42" y="158.5466"/><text fill="#1E293B" font-family="'Segoe UI'" font-size="12" font-weight="bold" lengthAdjust="spacing" textLength="109.6699" x="826.42" y="180.1481">mise.staging.toml</text><text fill="#1E293B" font-family="'Segoe UI'" font-size="12" lengthAdjust="spacing" textLength="242.7773" x="826.42" y="194.2809">DATABASE_URL = localhost:5433/staging</text><text fill="#1E293B" font-family="'Segoe UI'" font-size="12" lengthAdjust="spacing" textLength="109.2539" x="826.42" y="208.4138">LOG_LEVEL = INFO</text></g><!--entity backend--><g class="entity" data-qualified-name=".backend.backend" data-source-line="37" id="ent0008"><rect fill="#FFEDD5" height="90.6641" rx="2.5" ry="2.5" style="stroke:#94A3B8;stroke-width:1;" width="147.1074" x="61.26" y="342.0166"/><text fill="#1E293B" font-family="'Segoe UI'" font-size="12" font-weight="bold" lengthAdjust="spacing" textLength="119.0215" x="71.26" y="363.6181">backend/mise.toml</text><text fill="#1E293B" font-family="'Segoe UI'" font-size="12" lengthAdjust="spacing" textLength="127.1074" x="71.26" y="377.7509">SERVER_PORT = 8080</text><text fill="#1E293B" font-family="'Segoe UI'" font-size="12" lengthAdjust="spacing" textLength="107.9648" x="71.26" y="391.8838">DB_POOL_SIZE = 5</text><text fill="#1E293B" font-family="'Segoe UI'" font-size="12" lengthAdjust="spacing" textLength="112.9688" x="71.26" y="406.0166">+ inherits root vars</text><text fill="#1E293B" font-family="'Segoe UI'" font-size="12" lengthAdjust="spacing" textLength="89.2969" x="71.26" y="420.1494">- no NUXT vars</text></g><!--entity frontend--><g class="entity" data-qualified-name=".frontend.frontend" data-source-line="41" id="ent0010"><rect fill="#DCFCE7" height="90.6641" rx="2.5" ry="2.5" style="stroke:#94A3B8;stroke-width:1;" width="202.2383" x="275.69" y="342.0166"/><text fill="#1E293B" font-family="'Segoe UI'" font-size="12" font-weight="bold" lengthAdjust="spacing" textLength="120.873" x="285.69" y="363.6181">frontend/mise.toml</text><text fill="#1E293B" font-family="'Segoe UI'" font-size="12" lengthAdjust="spacing" textLength="182.2383" x="285.69" y="377.7509">NUXT_PUBLIC_API_URL = :8080</text><text fill="#1E293B" font-family="'Segoe UI'" font-size="12" lengthAdjust="spacing" textLength="116.8945" x="285.69" y="391.8838">NUXT_PORT = 3000</text><text fill="#1E293B" font-family="'Segoe UI'" font-size="12" lengthAdjust="spacing" textLength="112.9688" x="285.69" y="406.0166">+ inherits root vars</text><text fill="#1E293B" font-family="'Segoe UI'" font-size="12" lengthAdjust="spacing" textLength="108.9785" x="285.69" y="420.1494">- no SERVER_PORT</text></g><g class="entity" data-qualified-name="GMN15" data-source-line="50" id="ent0016"><path d="M6,495.6766 L6,531.5867 A0,0 0 0 0 6,531.5867 L243.6216,531.5867 A0,0 0 0 0 243.6216,531.5867 L243.6216,505.6766 L233.6216,495.6766 L130.21,495.6766 L131.23,432.8666 L122.21,495.6766 L6,495.6766 A0,0 0 0 0 6,495.6766" fill="#FFFBEB" style="stroke:#94A3B8;stroke-width:0.5;"/><path d="M233.6216,495.6766 L233.6216,505.6766 L243.6216,505.6766 L233.6216,495.6766" fill="#FFFBEB" style="stroke:#94A3B8;stroke-width:0.5;"/><text fill="#78350F" font-family="'Segoe UI'" font-size="11" lengthAdjust="spacing" textLength="130.5928" x="12" y="511.3113">cd backend &amp;&amp; mise env</text><text fill="#78350F" font-family="'Segoe UI'" font-size="11" lengthAdjust="spacing" textLength="216.6216" x="12" y="524.2664">shows SERVER_PORT but NOT NUXT vars</text></g><g class="entity" data-qualified-name="GMN18" data-source-line="55" id="ent0019"><path d="M279,495.6766 L279,531.5867 A0,0 0 0 0 279,531.5867 L516.6216,531.5867 A0,0 0 0 0 516.6216,531.5867 L516.6216,505.6766 L506.6216,495.6766 L398.88,495.6766 L384.33,432.8666 L390.88,495.6766 L279,495.6766 A0,0 0 0 0 279,495.6766" fill="#FFFBEB" style="stroke:#94A3B8;stroke-width:0.5;"/><path d="M506.6216,495.6766 L506.6216,505.6766 L516.6216,505.6766 L506.6216,495.6766" fill="#FFFBEB" style="stroke:#94A3B8;stroke-width:0.5;"/><text fill="#78350F" font-family="'Segoe UI'" font-size="11" lengthAdjust="spacing" textLength="131.7744" x="285" y="511.3113">cd frontend &amp;&amp; mise env</text><text fill="#78350F" font-family="'Segoe UI'" font-size="11" lengthAdjust="spacing" textLength="216.6216" x="285" y="524.2664">shows NUXT vars but NOT SERVER_PORT</text></g><!--link root to backend--><g class="link" data-entity-1="ent0003" data-entity-2="ent0008" data-link-type="dependency" data-source-line="44" id="lnk11"><path d="M263.96,228.4566 C237.54,260.7666 203.2285,302.702 175.2585,336.902" fill="none" id="root-to-backend" style="stroke:#475569;stroke-width:1;"/><polygon fill="#475569" points="171.46,341.5466,180.2541,337.1121,174.6254,337.6761,174.0613,332.0475,171.46,341.5466" style="stroke:#475569;stroke-width:1;"/><text fill="#475569" font-family="'Segoe UI'" font-size="11" lengthAdjust="spacing" textLength="40.3638" x="234.85" y="271.6513">inherits</text></g><!--link root to frontend--><g class="link" data-entity-1="ent0003" data-entity-2="ent0010" data-link-type="dependency" data-source-line="45" id="lnk12"><path d="M310.62,228.4566 C324.16,260.7666 341.3699,301.8133 355.7099,336.0133" fill="none" id="root-to-frontend" style="stroke:#475569;stroke-width:1;"/><polygon fill="#475569" points="358.03,341.5466,358.2387,331.6999,356.0966,336.9355,350.861,334.7934,358.03,341.5466" style="stroke:#475569;stroke-width:1;"/><text fill="#475569" font-family="'Segoe UI'" font-size="11" lengthAdjust="spacing" textLength="40.3638" x="329.47" y="271.6513">inherits</text></g><!--link root to dev--><g class="link" data-entity-1="ent0003" data-entity-2="ent0005" data-link-type="dependency" data-source-line="46" id="lnk13"><path d="M376.72,189.7466 C425.2,189.7466 481.5,189.7466 535.49,189.7466" fill="none" id="root-to-dev" style="stroke:#475569;stroke-width:1;"/><polygon fill="#475569" points="541.49,189.7466,532.49,185.7466,536.49,189.7466,532.49,193.7466,541.49,189.7466" style="stroke:#475569;stroke-width:1;"/><text fill="#475569" font-family="'Segoe UI'" font-size="11" lengthAdjust="spacing" textLength="129.1265" x="394.59" y="184.3813">MISE_ENV=development</text></g><!--link root to staging--><g class="link" data-entity-1="ent0003" data-entity-2="ent0006" data-link-type="dependency" data-source-line="47" id="lnk14"><path d="M367.65,151.0266 C412,129.6666 470.59,105.3166 525.81,94.3566 C645.26,70.6666 682.99,59.9766 799.81,94.3566 C842.04,106.7866 878.9092,131.6629 907.1792,154.3329" fill="none" id="root-to-staging" style="stroke:#475569;stroke-width:1;"/><polygon fill="#475569" points="911.86,158.0866,907.3411,149.3356,907.9593,154.9585,902.3363,155.5767,911.86,158.0866" style="stroke:#475569;stroke-width:1;"/><text fill="#475569" font-family="'Segoe UI'" font-size="11" lengthAdjust="spacing" textLength="99.5747" x="546.31" y="81.1113">MISE_ENV=staging</text></g><?plantuml-src ZPJhRjem5CU_vocEWZHjcWhXLYvgAoLWTv4e82xLD255WHWIDTZ8SK7RjAzxW3tYdcHs4j80QRjyIyxVv_yx5oTw2kZEvUuMbkxgQSFPC_LwB6GS3duWY1PbSO-itUTGO4R5qDqIqATammZCRRrOD0r-4AZMSq6JStP8afSQhMRpkdCULEVU5II9grekDfRixePOZ7k4fmaw3RDkjLyJpVnWzKH9547rKXAxYEyXWIKBlU9uwb95jKxTAd0vwsO9jx69Utde2La9bsx2Tx3FPCNWcUWjj1DHqiLQKNZgknux17G3QpUCI9vvoCGxkB7YedYCBMITgNAehNQzQU22U3Ph4GWv3lrcURSD8WA8xWFEw9PG0TCLsqdOcyhoRa77BbVV_lx-0pq_23smgKzu80jR4LtJTibqGA_0HywO-AH32M5yZJ7yr03uiGMPKrcmRPYaxdr1s1cQ3mXkPMwoNb1pF7RGy56-UsHFGhPJF0lgbDU1J74BPKBtvP2jt507Dm9b2AM-XKoCj5yvc0TxYk94EyxKqKXIOGDtNgVA-UK8--RCj4oPQpuPIFlOsMUHw3ORzLf5dbdGmUZU6Q17fE9zPCtlOp8PadqmS4s25Vf5mjt87l-dLxsIwa_zx24UnNPfDBFCzwAY_aE4UdgyDItKBsX1AgcS3MYA9ezeuen7avbqQnjjGs9QydqqSARsDpMtve9-XY1PYNGWUvT72te5bC5m_dKMlyUKgOlYGFr-yvHoBRTFf9W6xkD60UPHSywfR9pnt1hOFSSSssa7kmbm4anAg1k6yIPmhk8O-UWejwo7UwYbcECpL_92qwkxh2RePabF1Lc62m4FDhwG2hKhwkd2SMrlSzju9ZvEEYTEFsaQbNTS_c25R0omzH5DTd7bPPmVFa1yt-L5ae78PuSeNpGidmKCHxENoMdgbCfyaVzOMMAGrLdaa6NBykSyNnp-0G00?></g></svg>