<?plantuml 1.2026.2?><svg xmlns="http://www.w3.org/2000/svg" xmlns:xlink="http://www.w3.org/1999/xlink" contentStyleType="text/css" data-diagram-type="DESCRIPTION" height="1250px" preserveAspectRatio="none" style="width:448px;height:1250px;background:#FFFFFF;" version="1.1" viewBox="0 0 448 1250" width="448px" zoomAndPan="magnify"><title>&lt;b&gt;Shims vs Activate&lt;/b&gt; &#8212; When to Use Which</title><defs/><g><g class="title" data-source-line="30"><text fill="#000000" font-family="'Segoe UI'" font-size="14" font-weight="bold" lengthAdjust="spacing" textLength="127.0869" x="73.5289" y="23.5352">Shims vs Activate</text><text fill="#000000" font-family="'Segoe UI'" font-size="14" font-weight="bold" lengthAdjust="spacing" textLength="155.791" x="205.2301" y="23.5352">&#8212; When to Use Which</text></g><!--cluster mise activate (interactive shell)--><g class="cluster" data-qualified-name="mise activate .interactive shell." data-source-line="34" id="ent0002"><path d="M206.55,596.9183 L417.048,596.9183 A3.75,3.75 0 0 1 419.548,599.4183 L426.548,618.2288 L426.55,618.2288 A2.5,2.5 0 0 1 429.05,620.7288 L429.05,898.4183 A2.5,2.5 0 0 1 426.55,900.9183 L206.55,900.9183 A2.5,2.5 0 0 1 204.05,898.4183 L204.05,599.4183 A2.5,2.5 0 0 1 206.55,596.9183" fill="#EFF6FF" style="stroke:#94A3B8;stroke-width:1;"/><line style="stroke:#94A3B8;stroke-width:1;" x1="204.05" x2="426.548" y1="618.2288" y2="618.2288"/><text fill="#1E293B" font-family="'Segoe UI'" font-size="13" font-weight="bold" lengthAdjust="spacing" textLength="209.498" x="208.05" y="611.4866">mise activate (interactive shell)</text></g><!--cluster Shims (~/.local/share/mise/shims/)--><g class="cluster" data-qualified-name="Shims ....local.share.mise.shims.." data-source-line="40" id="ent0006"><path d="M194.05,924.9183 L429.3356,924.9183 A3.75,3.75 0 0 1 431.8356,927.4183 L438.8356,946.2288 L439.05,946.2288 A2.5,2.5 0 0 1 441.55,948.7288 L441.55,1241.4183 A2.5,2.5 0 0 1 439.05,1243.9183 L194.05,1243.9183 A2.5,2.5 0 0 1 191.55,1241.4183 L191.55,927.4183 A2.5,2.5 0 0 1 194.05,924.9183" fill="#F0FDFA" style="stroke:#94A3B8;stroke-width:1;"/><line style="stroke:#94A3B8;stroke-width:1;" x1="191.55" x2="438.8356" y1="946.2288" y2="946.2288"/><text fill="#1E293B" font-family="'Segoe UI'" font-size="13" font-weight="bold" lengthAdjust="spacing" textLength="234.2856" x="195.55" y="939.4866">Shims (/.local/share/mise/shims/)</text></g><!--cluster Consumers--><g class="cluster" data-qualified-name="Consumers" data-source-line="53" id="ent0013"><path d="M258.77,107.9183 L335.2436,107.9183 A3.75,3.75 0 0 1 337.7436,110.4183 L344.7436,129.2288 L373.33,129.2288 A2.5,2.5 0 0 1 375.83,131.7288 L375.83,570.4183 A2.5,2.5 0 0 1 373.33,572.9183 L258.77,572.9183 A2.5,2.5 0 0 1 256.27,570.4183 L256.27,110.4183 A2.5,2.5 0 0 1 258.77,107.9183" fill="#FAFAF9" style="stroke:#94A3B8;stroke-width:1;"/><line style="stroke:#94A3B8;stroke-width:1;" x1="256.27" x2="344.7436" y1="129.2288" y2="129.2288"/><text fill="#1E293B" font-family="'Segoe UI'" font-size="13" font-weight="bold" lengthAdjust="spacing" textLength="75.4736" x="260.27" y="122.4866">Consumers</text></g><!--entity terminal--><g class="entity" data-qualified-name="mise activate .interactive shell..terminal" data-source-line="35" id="ent0003"><ellipse cx="316.0517" cy="805.2883" fill="#F5F5F4" rx="8" ry="8" style="stroke:#475569;stroke-width:0.5;"/><path d="M316.0517,813.2883 L316.0517,840.2883 M303.0517,821.2883 L329.0517,821.2883 M316.0517,840.2883 L303.0517,855.2883 M316.0517,840.2883 L329.0517,855.2883" fill="none" style="stroke:#475569;stroke-width:0.5;"/><text fill="#1E293B" font-family="'Segoe UI'" font-size="12" lengthAdjust="spacing" textLength="51.3984" x="271.04" y="868.3898">Terminal</text><text fill="#1E293B" font-family="'Segoe UI'" font-size="12" lengthAdjust="spacing" textLength="90.0234" x="271.04" y="882.5227">(bash/zsh/fish)</text></g><!--entity path--><g class="entity" data-qualified-name="mise activate .interactive shell..path" data-source-line="36" id="ent0004"><rect fill="#DBEAFE" height="48.2656" rx="2.5" ry="2.5" style="stroke:#94A3B8;stroke-width:1;" width="103.0215" x="264.54" y="630.7883"/><text fill="#1E293B" font-family="'Segoe UI'" font-size="12" lengthAdjust="spacing" textLength="83.0215" x="274.54" y="652.3898">PATH updated</text><text fill="#1E293B" font-family="'Segoe UI'" font-size="12" lengthAdjust="spacing" textLength="66.873" x="274.54" y="666.5227">on every cd</text></g><!--entity envvars--><g class="entity" data-qualified-name="mise activate .interactive shell..envvars" data-source-line="37" id="ent0005"><rect fill="#DBEAFE" height="48.2656" rx="2.5" ry="2.5" style="stroke:#94A3B8;stroke-width:1;" width="89.7559" x="271.17" y="713.7883"/><text fill="#1E293B" font-family="'Segoe UI'" font-size="12" lengthAdjust="spacing" textLength="47.8242" x="281.17" y="735.3898">Env vars</text><text fill="#1E293B" font-family="'Segoe UI'" font-size="12" lengthAdjust="spacing" textLength="69.7559" x="281.17" y="749.5227">injected live</text></g><!--entity jshim--><g class="entity" data-qualified-name="Shims ....local.share.mise.shims...jshim" data-source-line="41" id="ent0007"><rect fill="#CCFBF1" height="34.1328" rx="2.5" ry="2.5" style="stroke:#94A3B8;stroke-width:1;" width="75.1484" x="278.48" y="1193.8483"/><text fill="#1E293B" font-family="'Segoe UI'" font-size="12" lengthAdjust="spacing" textLength="55.1484" x="288.48" y="1215.4498">java shim</text></g><!--entity nshim--><g class="entity" data-qualified-name="Shims ....local.share.mise.shims...nshim" data-source-line="42" id="ent0008"><rect fill="#CCFBF1" height="34.1328" rx="2.5" ry="2.5" style="stroke:#94A3B8;stroke-width:1;" width="81.0898" x="275.51" y="1027.8483"/><text fill="#1E293B" font-family="'Segoe UI'" font-size="12" lengthAdjust="spacing" textLength="61.0898" x="285.51" y="1049.4498">node shim</text></g><!--entity mshim--><g class="entity" data-qualified-name="Shims ....local.share.mise.shims...mshim" data-source-line="43" id="ent0009"><rect fill="#CCFBF1" height="34.1328" rx="2.5" ry="2.5" style="stroke:#94A3B8;stroke-width:1;" width="76.8945" x="277.6" y="958.8483"/><text fill="#1E293B" font-family="'Segoe UI'" font-size="12" lengthAdjust="spacing" textLength="56.8945" x="287.6" y="980.4498">mvn shim</text></g><g class="entity" data-qualified-name="Shims ....local.share.mise.shims...GMN10" data-source-line="46" id="ent0011"><path d="M238.88,1097.0083 L238.88,1158.8286 A0,0 0 0 0 238.88,1158.8286 L312.05,1158.8286 L316.05,1193.4083 L320.05,1158.8286 L393.2174,1158.8286 A0,0 0 0 0 393.2174,1158.8286 L393.2174,1107.0083 L383.2174,1097.0083 L238.88,1097.0083 A0,0 0 0 0 238.88,1097.0083" fill="#FFFBEB" style="stroke:#94A3B8;stroke-width:0.5;"/><path d="M383.2174,1097.0083 L383.2174,1107.0083 L393.2174,1107.0083 L383.2174,1097.0083" fill="#FFFBEB" style="stroke:#94A3B8;stroke-width:0.5;"/><text fill="#78350F" font-family="'Segoe UI'" font-size="11" lengthAdjust="spacing" textLength="57.3418" x="244.88" y="1112.643">Each shim:</text><text fill="#78350F" font-family="'Segoe UI'" font-size="11" lengthAdjust="spacing" textLength="103.2485" x="244.88" y="1125.5981">1. reads current dir</text><text fill="#78350F" font-family="'Segoe UI'" font-size="11" lengthAdjust="spacing" textLength="106.6431" x="244.88" y="1138.5532">2. checks mise.toml</text><text fill="#78350F" font-family="'Segoe UI'" font-size="11" lengthAdjust="spacing" textLength="133.3374" x="244.88" y="1151.5083">3. routes to right version</text></g><!--entity intellij--><g class="entity" data-qualified-name="Consumers.intellij" data-source-line="54" id="ent0014"><ellipse cx="316.0511" cy="491.3483" fill="#F5F5F4" rx="8" ry="8" style="stroke:#475569;stroke-width:0.5;"/><path d="M316.0511,499.3483 L316.0511,526.3483 M303.0511,507.3483 L329.0511,507.3483 M316.0511,526.3483 L303.0511,541.3483 M316.0511,526.3483 L329.0511,541.3483" fill="none" style="stroke:#475569;stroke-width:0.5;"/><text fill="#1E293B" font-family="'Segoe UI'" font-size="12" lengthAdjust="spacing" textLength="67.2422" x="282.43" y="554.4498">IntelliJ IDEA</text></g><!--entity vscode--><g class="entity" data-qualified-name="Consumers.vscode" data-source-line="55" id="ent0015"><ellipse cx="316.0504" cy="382.3483" fill="#F5F5F4" rx="8" ry="8" style="stroke:#475569;stroke-width:0.5;"/><path d="M316.0504,390.3483 L316.0504,417.3483 M303.0504,398.3483 L329.0504,398.3483 M316.0504,417.3483 L303.0504,432.3483 M316.0504,417.3483 L329.0504,432.3483" fill="none" style="stroke:#475569;stroke-width:0.5;"/><text fill="#1E293B" font-family="'Segoe UI'" font-size="12" lengthAdjust="spacing" textLength="44.2207" x="293.94" y="445.4498">VSCode</text></g><!--entity ci--><g class="entity" data-qualified-name="Consumers.ci" data-source-line="56" id="ent0016"><ellipse cx="316.0513" cy="273.3483" fill="#F5F5F4" rx="8" ry="8" style="stroke:#475569;stroke-width:0.5;"/><path d="M316.0513,281.3483 L316.0513,308.3483 M303.0513,289.3483 L329.0513,289.3483 M316.0513,308.3483 L303.0513,323.3483 M316.0513,308.3483 L329.0513,323.3483" fill="none" style="stroke:#475569;stroke-width:0.5;"/><text fill="#1E293B" font-family="'Segoe UI'" font-size="12" lengthAdjust="spacing" textLength="87.5625" x="272.27" y="336.4498">GitHub Actions</text></g><!--entity hooks--><g class="entity" data-qualified-name="Consumers.hooks" data-source-line="57" id="ent0017"><ellipse cx="316.0487" cy="150.2883" fill="#F5F5F4" rx="8" ry="8" style="stroke:#475569;stroke-width:0.5;"/><path d="M316.0487,158.2883 L316.0487,185.2883 M303.0487,166.2883 L329.0487,166.2883 M316.0487,185.2883 L303.0487,200.2883 M316.0487,185.2883 L329.0487,200.2883" fill="none" style="stroke:#475569;stroke-width:0.5;"/><text fill="#1E293B" font-family="'Segoe UI'" font-size="12" lengthAdjust="spacing" textLength="54.5566" x="277.16" y="213.3898">git hooks</text><text fill="#1E293B" font-family="'Segoe UI'" font-size="12" lengthAdjust="spacing" textLength="77.7773" x="277.16" y="227.5227">(pre-commit)</text></g><g class="entity" data-qualified-name="GMN24" data-source-line="69" id="ent0025"><path d="M223.19,43.4883 L223.19,92.3535 L408.9161,92.3535 L408.9161,53.4883 L398.9161,43.4883 L223.19,43.4883" fill="#FFFBEB" style="stroke:#94A3B8;stroke-width:0.5;"/><path d="M398.9161,43.4883 L398.9161,53.4883 L408.9161,53.4883 L398.9161,43.4883" fill="#FFFBEB" style="stroke:#94A3B8;stroke-width:1;"/><text fill="#78350F" font-family="'Segoe UI'" font-size="11" lengthAdjust="spacing" textLength="155.4932" x="229.19" y="59.123">IDEs DON'T source your shell</text><text fill="#78350F" font-family="'Segoe UI'" font-size="11" lengthAdjust="spacing" textLength="164.7261" x="229.19" y="72.0781">They need a STABLE fixed path</text><text fill="#78350F" font-family="'Segoe UI'" font-size="11" lengthAdjust="spacing" textLength="131.5703" x="229.19" y="85.0332">Shims = that stable path</text></g><!--link terminal to path--><g class="link" data-entity-1="ent0003" data-entity-2="ent0004" data-link-type="dependency" data-source-line="60" id="lnk18"><path d="M270.54,833.1783 C208.29,820.2783 107.46,789.7683 136.88,730.9183 C160.15,684.3783 214.3336,667.2653 258.5436,660.2753" fill="none" id="terminal-to-path" style="stroke:#475569;stroke-width:1;"/><polygon fill="#475569" points="264.47,659.3383,254.9558,656.7929,259.5313,660.1191,256.2051,664.6947,264.47,659.3383" style="stroke:#475569;stroke-width:1;"/><text fill="#475569" font-family="'Segoe UI'" font-size="11" lengthAdjust="spacing" textLength="21.0762" x="104.55" y="742.553">eval</text><text fill="#475569" font-family="'Segoe UI'" font-size="11" lengthAdjust="spacing" textLength="106.0093" x="150.4634" y="670.8072">$(mise activate zsh)</text></g><!--link terminal to envvars--><g class="link" data-entity-1="ent0003" data-entity-2="ent0005" data-link-type="dependency" data-source-line="61" id="lnk19"><path d="M316.05,796.6583 C316.05,785.1883 316.05,779.7183 316.05,768.2383" fill="none" id="terminal-to-envvars" style="stroke:#475569;stroke-width:1;"/><polygon fill="#475569" points="316.05,762.2383,312.05,771.2383,316.05,767.2383,320.05,771.2383,316.05,762.2383" style="stroke:#475569;stroke-width:1;"/></g><!--link intellij to jshim--><g class="link" data-entity-1="ent0014" data-entity-2="ent0007" data-link-type="dependency" data-source-line="63" id="lnk20"><path d="M282.11,536.4983 C252.25,552.6883 209.59,579.9583 183.55,614.9183 C107.59,716.8883 111.38,760.0083 90.38,885.4183 C68,1019.1483 83.84,1084.0283 183.55,1175.9183 C209.18,1199.5383 242.8928,1207.0653 272.1528,1209.6253" fill="none" id="intellij-to-jshim" style="stroke:#475569;stroke-width:1;"/><polygon fill="#475569" points="278.13,1210.1483,269.5129,1205.3791,273.149,1209.7125,268.8156,1213.3486,278.13,1210.1483" style="stroke:#475569;stroke-width:1;"/><text fill="#475569" font-family="'Segoe UI'" font-size="11" lengthAdjust="spacing" textLength="48.7642" x="90.9184" y="897.053">SDK path</text><text fill="#475569" font-family="'Segoe UI'" font-size="11" lengthAdjust="spacing" textLength="114.501" x="58.05" y="910.0081">/.local/.../shims/java</text></g><!--link vscode to nshim--><g class="link" data-entity-1="ent0015" data-entity-2="ent0008" data-link-type="dependency" data-source-line="64" id="lnk21"><path d="M293.59,415.6083 C243.97,427.3883 126.33,463.4883 87.88,547.4183 C44.08,643.0383 110.51,935.2483 183.55,1010.9183 C207.13,1035.3583 239.7249,1042.6759 269.1949,1044.7559" fill="none" id="vscode-to-nshim" style="stroke:#475569;stroke-width:1;"/><polygon fill="#475569" points="275.18,1045.1783,266.484,1040.5546,270.1924,1044.8263,265.9207,1048.5347,275.18,1045.1783" style="stroke:#475569;stroke-width:1;"/><text fill="#475569" font-family="'Segoe UI'" font-size="11" lengthAdjust="spacing" textLength="54.0547" x="88.4963" y="559.053">node path</text><text fill="#475569" font-family="'Segoe UI'" font-size="11" lengthAdjust="spacing" textLength="119.9473" x="55.55" y="572.0081">/.local/.../shims/node</text></g><!--link ci to jshim--><g class="link" data-entity-1="ent0016" data-entity-2="ent0007" data-link-type="dependency" data-source-line="65" id="lnk22"><path d="M271.92,308.2983 C242.26,314.9883 204.82,328.5683 183.55,355.9183 C6,584.2083 113.86,711.9083 93.88,1000.4183 C87.83,1087.7983 113.45,1123.4083 183.55,1175.9183 C211.07,1196.5283 243.7746,1204.2982 272.2446,1207.7882" fill="none" id="ci-to-jshim" style="stroke:#475569;stroke-width:1;"/><polygon fill="#475569" points="278.2,1208.5183,269.7536,1203.4529,273.2371,1207.9099,268.7802,1211.3935,278.2,1208.5183" style="stroke:#475569;stroke-width:1;"/><text fill="#475569" font-family="'Segoe UI'" font-size="11" lengthAdjust="spacing" textLength="86.2275" x="71.9565" y="1012.053">mise-action@v4</text><text fill="#475569" font-family="'Segoe UI'" font-size="11" lengthAdjust="spacing" textLength="107.0405" x="61.55" y="1025.0081">adds shims to PATH</text></g><!--link hooks to mshim--><g class="link" data-entity-1="ent0017" data-entity-2="ent0009" data-link-type="dependency" data-source-line="66" id="lnk23"><path d="M276.73,198.2783 C248.79,208.3583 211.42,224.5983 183.55,246.9183 C139.7,282.0383 124.87,294.1983 106.88,347.4183 C103.04,358.7883 106.02,362.4483 106.88,374.4183 C123.96,610.2683 50,705.7783 183.55,900.9183 C205.72,933.3083 241.1123,951.305 271.6723,962.435" fill="none" id="hooks-to-mshim" style="stroke:#475569;stroke-width:1;"/><polygon fill="#475569" points="277.31,964.4883,270.2222,957.6499,272.6119,962.7772,267.4845,965.1669,277.31,964.4883" style="stroke:#475569;stroke-width:1;"/><text fill="#475569" font-family="'Segoe UI'" font-size="11" lengthAdjust="spacing" textLength="64.1416" x="83.3291" y="359.053">pre-commit</text><text fill="#475569" font-family="'Segoe UI'" font-size="11" lengthAdjust="spacing" textLength="81.6997" x="74.55" y="372.0081">mvn checkstyle</text></g><!--link GMN24 to intellij--><g class="link" data-entity-1="ent0025" data-entity-2="ent0014" data-link-type="association" data-source-line="69" id="lnk26"><path d="M222.92,90.7983 C199.13,102.0483 177.68,118.7283 168.55,143.4183 C156.79,175.1983 156.79,416.6383 168.55,448.4183 C185.19,493.3883 243.82,510.1383 281.97,516.3283" fill="none" id="GMN24-intellij" style="stroke:#475569;stroke-width:1;stroke-dasharray:7,7;"/></g><?plantuml-src XLNRSjf847tNLtJ9MnNsmH2CdTYkh2i2DB6Jb9CAPFU5bq4Qc37I33Kpo6kdaif7v0ltIxPd98Iun8QYaEQSxZxTVGHc8UIIQfh3b2QBkLOhcGvKfZJSSs5PO6eyPJEwoYnHqjxId44uOdF5uEjDU9Wq4eyCkhq666cjxilaHwUlpyvUNUo2BkvPGfcu6pImpwYTpbbVwPJfAi75QTJhd_-EDEOYMKXc37JtARwAVSWOJ5MM7iQhAjtuvABNFr1bPvf7v9n4PD0K_OKbbifvzepi7TfXuJNfAMbRf7AA9uVW4QUfkXTo3ZEQ6TRK72LMwIsz-tlobBtsp_1zkajxIcrDM2jjOBVAFZCrpzWJGKW_xk-m6XfUd_VENf83U6qvAoow8dmplHfnaHieZDCf2chPcyxq2lxx-Gl-uKo2LV3LCBmM2G-386Cpwywqc7CBgT0uQw5a42nBkq2O2wJJAXUqXBHC-ri6XhCi-pE4evYGLuJ0jm0S4nM7OwPp8MasaQqfDRppY9-PC1pPr82jKEJhzN8X_1oDhs6rJB5EEf5A0YkOVe0azJ5BQZcurz6m7qSatewDPG45rMOYXRp3OvP2XX9z99E5WvgntniDbWDh_UYqCvNGh6CurQpZsiPBX3gkG_AI34daEsnKlQC51KVoTUxS5TOO34YVTBUPKgLimvHFCFD2LaJ7pBUPI9MuUdpyhLKvg5bPD72znJJXFlBIttRRc9Mc1fALrapwvNhWf0q9Pya2asEFRSoJ-VCU1gYLPMRZ1vo_SMu0d67gAszDRg2aMUN8SGEAy7tHjC0DEYNBn7ku6SPHw5VdEXBbyTs6-FTeWDEf650J2vFWyORsJjZhrTJR6kk6QreYDfIviC2LMg0DMalDZXELvyAMdlFdJlxQV73icpo-ggrrYOx3y_2FrhRf7vrl3yHLnWg2TKyRgFJ29Oo67tpwYQpzrMwtAsCv-mHbcrYzZfLLhFVCRuCT6YIYcjTUOTV1CVMpUbkSJYHDqGe-qgtNFMg1dyXMS5u5RsOtaSwFfL_S7qyGUFzPjNJcQ-mIbsnW-EdsnHYCMkc4mGD-bJyH28yvUm39yB6aC1f7_OynpCI_UElwGxny2Fy2owa5O-aqAriFQkFz3m00?></g></svg>