<?plantuml 1.2026.2?><svg xmlns="http://www.w3.org/2000/svg" xmlns:xlink="http://www.w3.org/1999/xlink" contentStyleType="text/css" data-diagram-type="DESCRIPTION" height="491px" preserveAspectRatio="none" style="width:1050px;height:491px;background:#FFFFFF;" version="1.1" viewBox="0 0 1050 491" width="1050px" zoomAndPan="magnify"><title>&lt;b&gt;mise Task Dependency Graph&lt;/b&gt;
La Brigade du Code</title><defs/><g><g class="title" data-source-line="19"><text fill="#000000" font-family="'Segoe UI'" font-size="14" font-weight="bold" lengthAdjust="spacing" textLength="214.5254" x="411.0078" y="23.5352">mise Task Dependency Graph</text><text fill="#000000" font-family="'Segoe UI'" font-size="14" font-weight="bold" lengthAdjust="spacing" textLength="139.7607" x="448.3901" y="40.0234">La Brigade du Code</text></g><!--entity serve--><g class="entity" data-qualified-name="serve" data-source-line="22" id="ent0002"><rect fill="#DBEAFE" height="45.9102" rx="2.5" ry="2.5" style="stroke:#94A3B8;stroke-width:1;" width="97.7393" x="706.22" y="69.9266"/><text fill="#1E293B" font-family="'Segoe UI'" font-size="12" lengthAdjust="spacing" textLength="30.6094" x="716.22" y="91.5281">serve</text><text fill="#1E293B" font-family="'Segoe UI'" font-size="10" lengthAdjust="spacing" textLength="77.7393" x="716.22" y="103.7273">(mise run serve)</text></g><!--entity plate--><g class="entity" data-qualified-name="plate" data-source-line="23" id="ent0003"><rect fill="#EDE9FE" height="45.9102" rx="2.5" ry="2.5" style="stroke:#94A3B8;stroke-width:1;" width="62.3193" x="723.93" y="199.7966"/><text fill="#1E293B" font-family="'Segoe UI'" font-size="12" lengthAdjust="spacing" textLength="28.8223" x="733.93" y="221.3981">plate</text><text fill="#1E293B" font-family="'Segoe UI'" font-size="10" lengthAdjust="spacing" textLength="42.3193" x="733.93" y="233.5973">(dresser)</text></g><!--entity cook--><g class="entity" data-qualified-name="cook" data-source-line="24" id="ent0004"><rect fill="#EDE9FE" height="45.9102" rx="2.5" ry="2.5" style="stroke:#94A3B8;stroke-width:1;" width="50.3857" x="729.89" y="319.7066"/><text fill="#1E293B" font-family="'Segoe UI'" font-size="12" lengthAdjust="spacing" textLength="27.9023" x="739.89" y="341.3081">cook</text><text fill="#1E293B" font-family="'Segoe UI'" font-size="10" lengthAdjust="spacing" textLength="30.3857" x="739.89" y="353.5073">(cuire)</text></g><!--entity prep--><g class="entity" data-qualified-name="prep" data-source-line="25" id="ent0005"><rect fill="#EDE9FE" height="45.9102" rx="2.5" ry="2.5" style="stroke:#94A3B8;stroke-width:1;" width="68.0322" x="721.07" y="439.6166"/><text fill="#1E293B" font-family="'Segoe UI'" font-size="12" lengthAdjust="spacing" textLength="26.7012" x="731.07" y="461.2181">prep</text><text fill="#1E293B" font-family="'Segoe UI'" font-size="10" lengthAdjust="spacing" textLength="48.0322" x="731.07" y="473.4173">(preparer)</text></g><!--entity announce--><g class="entity" data-qualified-name="announce" data-source-line="26" id="ent0006"><rect fill="#EDE9FE" height="45.9102" rx="2.5" ry="2.5" style="stroke:#94A3B8;stroke-width:1;" width="76.6191" x="838.78" y="69.9266"/><text fill="#1E293B" font-family="'Segoe UI'" font-size="12" lengthAdjust="spacing" textLength="56.6191" x="848.78" y="91.5281">announce</text><text fill="#1E293B" font-family="'Segoe UI'" font-size="10" lengthAdjust="spacing" textLength="51.5723" x="848.78" y="103.7273">(annoncer)</text></g><!--entity service--><g class="entity" data-qualified-name="service" data-source-line="29" id="ent0007"><rect fill="#DBEAFE" height="45.9102" rx="2.5" ry="2.5" style="stroke:#94A3B8;stroke-width:1;" width="70.6592" x="94.76" y="69.9266"/><text fill="#1E293B" font-family="'Segoe UI'" font-size="12" lengthAdjust="spacing" textLength="40.2246" x="104.76" y="91.5281">service</text><text fill="#1E293B" font-family="'Segoe UI'" font-size="10" lengthAdjust="spacing" textLength="50.6592" x="104.76" y="103.7273">(full stack)</text></g><!--entity backend--><g class="entity" data-qualified-name="backend" data-source-line="30" id="ent0008"><rect fill="#FFEDD5" height="45.9102" rx="2.5" ry="2.5" style="stroke:#94A3B8;stroke-width:1;" width="114.1699" x="7" y="199.7966"/><text fill="#1E293B" font-family="'Segoe UI'" font-size="12" lengthAdjust="spacing" textLength="49.0254" x="17" y="221.3981">backend</text><text fill="#1E293B" font-family="'Segoe UI'" font-size="10" lengthAdjust="spacing" textLength="94.1699" x="17" y="233.5973">(Spring Boot :8080)</text></g><!--entity frontend--><g class="entity" data-qualified-name="frontend" data-source-line="31" id="ent0009"><rect fill="#DCFCE7" height="45.9102" rx="2.5" ry="2.5" style="stroke:#94A3B8;stroke-width:1;" width="81.5918" x="156.29" y="199.7966"/><text fill="#1E293B" font-family="'Segoe UI'" font-size="12" lengthAdjust="spacing" textLength="50.3145" x="166.29" y="221.3981">frontend</text><text fill="#1E293B" font-family="'Segoe UI'" font-size="10" lengthAdjust="spacing" textLength="61.5918" x="166.29" y="233.5973">(Nuxt :3000)</text></g><!--entity check--><g class="entity" data-qualified-name="check" data-source-line="34" id="ent0010"><rect fill="#DBEAFE" height="45.9102" rx="2.5" ry="2.5" style="stroke:#94A3B8;stroke-width:1;" width="84.8145" x="386.68" y="69.9266"/><text fill="#1E293B" font-family="'Segoe UI'" font-size="12" lengthAdjust="spacing" textLength="33.4395" x="396.68" y="91.5281">check</text><text fill="#1E293B" font-family="'Segoe UI'" font-size="10" lengthAdjust="spacing" textLength="64.8145" x="396.68" y="103.7273">(pre-commit)</text></g><!--entity lint--><g class="entity" data-qualified-name="lint" data-source-line="35" id="ent0011"><rect fill="#F5F5F4" height="34.1328" rx="2.5" ry="2.5" style="stroke:#94A3B8;stroke-width:1;" width="38.873" x="366.65" y="205.6866"/><text fill="#1E293B" font-family="'Segoe UI'" font-size="12" lengthAdjust="spacing" textLength="18.873" x="376.65" y="227.2881">lint</text></g><!--entity format--><g class="entity" data-qualified-name="format" data-source-line="36" id="ent0012"><rect fill="#F5F5F4" height="34.1328" rx="2.5" ry="2.5" style="stroke:#94A3B8;stroke-width:1;" width="59.0117" x="443.58" y="205.6866"/><text fill="#1E293B" font-family="'Segoe UI'" font-size="12" lengthAdjust="spacing" textLength="39.0117" x="453.58" y="227.2881">format</text></g><!--entity release--><g class="entity" data-qualified-name="release" data-source-line="39" id="ent0013"><rect fill="#F3E8FF" height="45.9102" rx="2.5" ry="2.5" style="stroke:#94A3B8;stroke-width:1;" width="91.3281" x="950.42" y="69.9266"/><text fill="#1E293B" font-family="'Segoe UI'" font-size="12" lengthAdjust="spacing" textLength="41.1797" x="960.42" y="91.5281">release</text><text fill="#1E293B" font-family="'Segoe UI'" font-size="10" lengthAdjust="spacing" textLength="71.3281" x="960.42" y="103.7273">(GitHub Pages)</text></g><!--entity docsbuild--><g class="entity" data-qualified-name="docsbuild" data-source-line="40" id="ent0014"><rect fill="#EDE9FE" height="45.9102" rx="2.5" ry="2.5" style="stroke:#94A3B8;stroke-width:1;" width="80.4746" x="955.85" y="199.7966"/><text fill="#1E293B" font-family="'Segoe UI'" font-size="12" lengthAdjust="spacing" textLength="60.4746" x="965.85" y="221.3981">docs:build</text><text fill="#1E293B" font-family="'Segoe UI'" font-size="10" lengthAdjust="spacing" textLength="50.6299" x="965.85" y="233.5973">(VitePress)</text></g><g class="entity" data-qualified-name="GMN23" data-source-line="55" id="ent0024"><path d="M200.7,59.9766 L200.7,88.8866 L165.73,92.8866 L200.7,96.8866 L200.7,125.7969 A0,0 0 0 0 200.7,125.7969 L351.4656,125.7969 A0,0 0 0 0 351.4656,125.7969 L351.4656,69.9766 L341.4656,59.9766 L200.7,59.9766 A0,0 0 0 0 200.7,59.9766" fill="#FFFBEB" style="stroke:#94A3B8;stroke-width:0.5;"/><path d="M341.4656,59.9766 L341.4656,69.9766 L351.4656,69.9766 L341.4656,59.9766" fill="#FFFBEB" style="stroke:#94A3B8;stroke-width:0.5;"/><text fill="#78350F" font-family="'Segoe UI'" font-size="11" lengthAdjust="spacing" textLength="100.8477" x="206.7" y="75.6113">mise runs backend</text><text fill="#78350F" font-family="'Segoe UI'" font-size="11" lengthAdjust="spacing" textLength="129.7656" x="206.7" y="88.5664">AND frontend in parallel</text><text fill="#78350F" font-family="'Segoe UI'" font-size="11" lengthAdjust="spacing" textLength="117.8096" x="206.7" y="114.4766">No &amp; operator needed</text><line style="stroke:#94A3B8;stroke-width:1;" x1="201.7" x2="235.9151" y1="97.3643" y2="97.3643"/><text fill="#78350F" font-family="'Segoe UI'" font-size="11" lengthAdjust="spacing" textLength="80.3354" x="235.9151" y="101.0215">cross-platform</text><line style="stroke:#94A3B8;stroke-width:1;" x1="316.2505" x2="350.4656" y1="97.3643" y2="97.3643"/></g><g class="entity" data-qualified-name="GMN26" data-source-line="62" id="ent0027"><path d="M506.63,74.9266 L506.63,88.8866 L471.9,92.8866 L506.63,96.8866 L506.63,110.8367 A0,0 0 0 0 506.63,110.8367 L671.5377,110.8367 A0,0 0 0 0 671.5377,110.8367 L671.5377,84.9266 L661.5377,74.9266 L506.63,74.9266 A0,0 0 0 0 506.63,74.9266" fill="#FFFBEB" style="stroke:#94A3B8;stroke-width:0.5;"/><path d="M661.5377,74.9266 L661.5377,84.9266 L671.5377,84.9266 L661.5377,74.9266" fill="#FFFBEB" style="stroke:#94A3B8;stroke-width:0.5;"/><text fill="#78350F" font-family="'Segoe UI'" font-size="11" lengthAdjust="spacing" textLength="93.4033" x="512.63" y="90.5613">runs before every</text><text fill="#78350F" font-family="'Segoe UI'" font-size="11" lengthAdjust="spacing" textLength="143.9077" x="512.63" y="103.5164">git commit via pre-commit</text></g><!--link serve to plate--><g class="link" data-entity-1="ent0002" data-entity-2="ent0003" data-link-type="dependency" data-source-line="42" id="lnk15"><path d="M755.08,116.1566 C755.08,139.4866 755.08,169.9166 755.08,193.3066" fill="none" id="serve-to-plate" style="stroke:#475569;stroke-width:1;"/><polygon fill="#475569" points="755.08,199.3066,759.08,190.3066,755.08,194.3066,751.08,190.3066,755.08,199.3066" style="stroke:#475569;stroke-width:1;"/><text fill="#475569" font-family="'Segoe UI'" font-size="11" lengthAdjust="spacing" textLength="45.4609" x="756.08" y="167.4313">depends</text></g><!--link plate to cook--><g class="link" data-entity-1="ent0003" data-entity-2="ent0004" data-link-type="dependency" data-source-line="43" id="lnk16"><path d="M755.08,245.9266 C755.08,267.0066 755.08,292.5366 755.08,313.5866" fill="none" id="plate-to-cook" style="stroke:#475569;stroke-width:1;"/><polygon fill="#475569" points="755.08,319.5866,759.08,310.5866,755.08,314.5866,751.08,310.5866,755.08,319.5866" style="stroke:#475569;stroke-width:1;"/><text fill="#475569" font-family="'Segoe UI'" font-size="11" lengthAdjust="spacing" textLength="45.4609" x="756.08" y="287.3413">depends</text></g><!--link cook to prep--><g class="link" data-entity-1="ent0004" data-entity-2="ent0005" data-link-type="dependency" data-source-line="44" id="lnk17"><path d="M755.08,365.8366 C755.08,386.9166 755.08,412.4466 755.08,433.4966" fill="none" id="cook-to-prep" style="stroke:#475569;stroke-width:1;"/><polygon fill="#475569" points="755.08,439.4966,759.08,430.4966,755.08,434.4966,751.08,430.4966,755.08,439.4966" style="stroke:#475569;stroke-width:1;"/><text fill="#475569" font-family="'Segoe UI'" font-size="11" lengthAdjust="spacing" textLength="45.4609" x="756.08" y="407.2513">depends</text></g><!--link service to backend--><g class="link" data-entity-1="ent0007" data-entity-2="ent0008" data-link-type="dependency" data-source-line="46" id="lnk18"><path d="M118.59,116.1566 C106.55,139.4866 90.4915,170.5846 78.4215,193.9746" fill="none" id="service-to-backend" style="stroke:#475569;stroke-width:1;"/><polygon fill="#475569" points="75.67,199.3066,83.3518,193.143,77.9629,194.8633,76.2426,189.4744,75.67,199.3066" style="stroke:#475569;stroke-width:1;"/><text fill="#475569" font-family="'Segoe UI'" font-size="11" lengthAdjust="spacing" textLength="39.2412" x="98.08" y="167.4313">parallel</text></g><!--link service to frontend--><g class="link" data-entity-1="ent0007" data-entity-2="ent0009" data-link-type="dependency" data-source-line="47" id="lnk19"><path d="M141.76,116.1566 C153.98,139.4866 170.2863,170.6014 182.5363,193.9914" fill="none" id="service-to-frontend" style="stroke:#475569;stroke-width:1;"/><polygon fill="#475569" points="185.32,199.3066,184.6879,189.478,183.0002,194.8773,177.601,193.1896,185.32,199.3066" style="stroke:#475569;stroke-width:1;"/><text fill="#475569" font-family="'Segoe UI'" font-size="11" lengthAdjust="spacing" textLength="39.2412" x="170.59" y="167.4313">parallel</text></g><!--link check to lint--><g class="link" data-entity-1="ent0010" data-entity-2="ent0011" data-link-type="dependency" data-source-line="49" id="lnk20"><path d="M406.99,116.2366 C397.7,127.1966 387.92,141.1766 383.08,155.7966 C377.72,172.0066 378.5284,185.7967 381.0484,199.4167" fill="none" id="check-to-lint" style="stroke:#475569;stroke-width:1;"/><polygon fill="#475569" points="382.14,205.3166,384.4358,195.739,381.2303,200.4,376.5693,197.1945,382.14,205.3166" style="stroke:#475569;stroke-width:1;"/><text fill="#475569" font-family="'Segoe UI'" font-size="11" lengthAdjust="spacing" textLength="45.4609" x="384.08" y="167.4313">depends</text></g><!--link check to format--><g class="link" data-entity-1="ent0010" data-entity-2="ent0012" data-link-type="dependency" data-source-line="50" id="lnk21"><path d="M436.75,116.1566 C445.51,141.6266 457.7087,177.0527 465.5087,199.7327" fill="none" id="check-to-format" style="stroke:#475569;stroke-width:1;"/><polygon fill="#475569" points="467.46,205.4066,468.3156,195.5949,465.8339,200.6784,460.7505,198.1967,467.46,205.4066" style="stroke:#475569;stroke-width:1;"/><text fill="#475569" font-family="'Segoe UI'" font-size="11" lengthAdjust="spacing" textLength="45.4609" x="456.03" y="167.4313">depends</text></g><!--link release to docsbuild--><g class="link" data-entity-1="ent0013" data-entity-2="ent0014" data-link-type="dependency" data-source-line="52" id="lnk22"><path d="M996.08,116.1566 C996.08,139.4866 996.08,169.9166 996.08,193.3066" fill="none" id="release-to-docsbuild" style="stroke:#475569;stroke-width:1;"/><polygon fill="#475569" points="996.08,199.3066,1000.08,190.3066,996.08,194.3066,992.08,190.3066,996.08,199.3066" style="stroke:#475569;stroke-width:1;"/><text fill="#475569" font-family="'Segoe UI'" font-size="11" lengthAdjust="spacing" textLength="45.4609" x="997.08" y="167.4313">depends</text></g><?plantuml-src pLLDRzf04BtxLuo8r2O750YX8GWXGR3JgXLAcxIdN1PxW1LcrzfT9wMd_eZ-mlwIple3hmaqLTMgDLoyy_PvvksRMRtY8c6AhM76mjL2oLH4LpAM2XwNtA2dj_48vooDJI25cR8rGkCM5nBXuvl6Vj0j_uBGxZZ1aLBoCIS_Eh_eTbzTxWRjlcS1EN7RSs8VC3HCB68SInMXAYWkpqUTSUymx6x9mvL0hQ6z3-Gaq_RFBZlZGw0yeRDzuTibY-GZ5mkOirYZc_DKccVIpH0xft8K1C7O7--Wd5GlUfrkAzWJtyfck8df-0QpuPfhX3kcLp3114M48jp0jMB9Sd0w6zwBTmp6YYzOX12bS2KZR7ZUI_Z-xIlzuIqtuH8562BGS1nAkRA5Xal6nKa1-hD_JvMwGaEZUi1xCT1KLh_T6XvdnQXKG1Ov6PpQoB01JEShO9-ZoTWV1RvBbCJCr8WYHPP0LJ4K3n5bs9p8d_YNTI8hWCiJfbpX4vQSo6BX456YC769x3jJ1pAYs44Y9WGv9wnLPzTegKv6H2Ms8gfEEaZZkAaDMJ6JaXFgRnplxrY0rwkRKwQGPUhMLrZ0vhtN0dRqaVrTejj4MJEFfJJGxxLwhPgXYWrWsz6VJBeksLnHi-smJTFFHDDfjHmQorDYRLPNmPL_uOZ-FcKnDvkyd_wPtZ-Hdve_NEtuj1dAzPgRkbEjtotsK0V6N1YtFmu-H6InXT-3BltEQz9BjMQ_GcMbpx0kKINzH8OQJkaoIsAv-H-bLnWZqpNdNtFpEft13LkWhdcrm6Q5TlnU4BX44LNQdwKyhjdr4ztyDtOAreWiDeDM4o8Vh4swuaHpM4p7ljMDFAsz_BsCvYElYkRlsxtP7AkYNjcm9M3RSdsmzreSO_m4isqd1-FbrYiXXN-SD6hXmXLE7gLy9Q9ImG49kcE1Rigb0JalPuq7KDv9sub1QwFff4gKEdkRAOdHX519hPjMEPiAhT3oLC8Ba0agPkY65uWHHfxTRJ-x-_6i7jgKVnM91G4VK6reRS4Dv0qA3vn1rQyLsmy0?></g></svg>